<svg xmlns="http://www.w3.org/2000/svg" width="24" height="24" viewBox="0 0 24 24" fill="none">
  <path d="M21.7099 9.29L17.7099 5.29C17.6167 5.19676 17.506 5.1228 17.3841 5.07234C17.2623 5.02188 17.1318 4.99591 16.9999 4.99591C16.7336 4.99591 16.4782 5.1017 16.2899 5.29C16.1016 5.47831 15.9958 5.7337 15.9958 6C15.9958 6.2663 16.1016 6.5217 16.2899 6.71L18.5899 9H6.9999C6.73468 9 6.48033 9.10536 6.29279 9.2929C6.10525 9.48043 5.9999 9.73479 5.9999 10C5.9999 10.2652 6.10525 10.5196 6.29279 10.7071C6.48033 10.8946 6.73468 11 6.9999 11H20.9999C21.1973 10.999 21.39 10.9396 21.5538 10.8293C21.7175 10.7189 21.8449 10.5626 21.9199 10.38C21.9965 10.1979 22.0174 9.99718 21.98 9.80319C21.9426 9.6092 21.8487 9.43063 21.7099 9.29ZM16.9999 13H2.9999C2.80247 13.001 2.60975 13.0604 2.44603 13.1707C2.28231 13.2811 2.15492 13.4374 2.0799 13.62C2.00332 13.8021 1.98239 14.0028 2.01977 14.1968C2.05714 14.3908 2.15114 14.5694 2.2899 14.71L6.2899 18.71C6.38286 18.8037 6.49346 18.8781 6.61532 18.9289C6.73718 18.9797 6.86788 19.0058 6.9999 19.0058C7.13191 19.0058 7.26261 18.9797 7.38447 18.9289C7.50633 18.8781 7.61693 18.8037 7.7099 18.71C7.80362 18.617 7.87802 18.5064 7.92879 18.3846C7.97956 18.2627 8.00569 18.132 8.00569 18C8.00569 17.868 7.97956 17.7373 7.92879 17.6154C7.87802 17.4936 7.80362 17.383 7.7099 17.29L5.4099 15H16.9999C17.2651 15 17.5195 14.8946 17.707 14.7071C17.8945 14.5196 17.9999 14.2652 17.9999 14C17.9999 13.7348 17.8945 13.4804 17.707 13.2929C17.5195 13.1054 17.2651 13 16.9999 13Z" fill="#FBF1F3"/>
</svg>