<svg width="24" height="25" viewBox="0 0 24 25" fill="none" xmlns="http://www.w3.org/2000/svg">
<g id="tabler:arrows-exchange">
<path id="Vector (Stroke)" fill-rule="evenodd" clip-rule="evenodd" d="M18.7071 8.20708C19.0976 7.81655 19.0976 7.18339 18.7071 6.79286L14.7071 2.79286C14.4211 2.50687 13.991 2.42131 13.6173 2.57609C13.2436 2.73087 13 3.09551 13 3.49997L13 17.5C13 18.0523 13.4477 18.5 14 18.5C14.5523 18.5 15 18.0523 15 17.5L15 5.91418L17.2929 8.20708C17.6834 8.5976 18.3166 8.5976 18.7071 8.20708ZM10.3827 22.4239C10.7564 22.2691 11 21.9044 11 21.5L11 7.49997C11 6.94769 10.5523 6.49997 10 6.49997C9.44772 6.49997 9 6.94769 9 7.49997L9 19.0858L6.70711 16.7929C6.31658 16.4023 5.68342 16.4023 5.29289 16.7929C4.90237 17.1834 4.90237 17.8166 5.29289 18.2071L9.29289 22.2071C9.57889 22.4931 10.009 22.5786 10.3827 22.4239Z" fill="currentColor"/>
</g>
</svg>
