<svg width="24" height="25" viewBox="0 0 24 25" fill="none" xmlns="http://www.w3.org/2000/svg">
<g id="solar:graph-up-linear">
<g id="Group">
<path id="Vector (Stroke)" fill-rule="evenodd" clip-rule="evenodd" d="M6.61391 3.42632C5.33587 3.5981 4.56481 3.9248 3.99431 4.49435C3.42488 5.06428 3.09812 5.83519 2.92632 7.11353C2.75159 8.41358 2.75 10.1218 2.75 12.5C2.75 14.8782 2.75159 16.5867 2.92632 17.8867C3.09816 19.1653 3.42496 19.9357 3.99415 20.5045C4.56411 21.0745 5.33519 21.4016 6.61359 21.5736C7.91361 21.7484 9.62179 21.75 12 21.75C14.3782 21.75 16.0866 21.7484 17.3867 21.5736C18.6651 21.4016 19.4355 21.0746 20.0043 20.505L20.0048 20.5045C20.5746 19.9351 20.9016 19.1646 21.0736 17.8863C21.2484 16.5864 21.25 14.8782 21.25 12.5C21.25 10.1218 21.2484 8.41386 21.0736 7.11398C20.9016 5.83578 20.5747 5.06471 20.0045 4.49415C19.4351 3.92487 18.6646 3.59813 17.3863 3.42632C16.0864 3.25159 14.3782 3.25 12 3.25C9.6218 3.25 7.91383 3.25159 6.61391 3.42632ZM11.9426 1.75H12.0574C14.3657 1.74999 16.1748 1.74998 17.5862 1.93968C19.0308 2.13386 20.1707 2.53906 21.0653 3.43367C21.9602 4.32911 22.3659 5.46922 22.5602 6.91402C22.75 8.32546 22.75 10.1343 22.75 12.4426V12.5574C22.75 14.8657 22.75 16.6748 22.5602 18.0862C22.3659 19.5307 21.9605 20.6706 21.0655 21.5651C21.0654 21.5653 21.0653 21.5654 21.0651 21.5655L20.535 21.035L21.0655 21.5651C21.0655 21.5652 21.0656 21.5651 21.0655 21.5651C20.1714 22.4604 19.0313 22.8659 17.5866 23.0602C16.175 23.25 14.3657 23.25 12.0574 23.25H11.9426C9.63425 23.25 7.82522 23.25 6.41366 23.0602C4.9689 22.8659 3.82886 22.4604 2.93385 21.5655C2.93379 21.5655 2.93391 21.5656 2.93385 21.5655C2.03904 20.6713 1.63384 19.5312 1.43968 18.0865C1.24998 16.675 1.24999 14.8657 1.25 12.5574V12.4426C1.24999 10.1343 1.24998 8.32525 1.43968 6.91372C1.63386 5.46897 2.03905 4.32891 2.93349 3.43385L2.93403 3.43331C3.82949 2.53907 4.96938 2.13387 6.41409 1.93968C7.82549 1.74998 9.63426 1.74999 11.9426 1.75Z" fill="currentColor"/>
<path id="Vector (Stroke)_2" fill-rule="evenodd" clip-rule="evenodd" d="M13.75 10.5C13.75 10.0858 14.0858 9.75 14.5 9.75H17C17.4142 9.75 17.75 10.0858 17.75 10.5V13C17.75 13.4142 17.4142 13.75 17 13.75C16.5858 13.75 16.25 13.4142 16.25 13V12.3107L14.2373 14.3233C13.9092 14.6514 13.464 14.8358 13 14.8358C12.536 14.8358 12.0909 14.6515 11.7627 14.3234L10.1767 12.7374C10.1767 12.7374 10.1768 12.7374 10.1767 12.7374C10.1299 12.6906 10.0663 12.6642 10 12.6642C9.93375 12.6642 9.8702 12.6905 9.82333 12.7373C9.8233 12.7374 9.82336 12.7373 9.82333 12.7373L7.53033 15.0303C7.23744 15.3232 6.76256 15.3232 6.46967 15.0303C6.17678 14.7374 6.17678 14.2626 6.46967 13.9697L8.76267 11.6767C9.09084 11.3486 9.53596 11.1642 10 11.1642C10.464 11.1642 10.9091 11.3485 11.2372 11.6766L12.8232 13.2626C12.8232 13.2626 12.8233 13.2626 12.8232 13.2626C12.8701 13.3094 12.9337 13.3358 13 13.3358C13.0663 13.3358 13.1298 13.3095 13.1767 13.2627C13.1766 13.2627 13.1767 13.2626 13.1767 13.2627L15.1893 11.25H14.5C14.0858 11.25 13.75 10.9142 13.75 10.5Z" fill="currentColor"/>
</g>
</g>
</svg>
