<svg width="16" height="17" viewBox="0 0 16 17" fill="none" xmlns="http://www.w3.org/2000/svg">
<path d="M14.6667 8.50001C14.6667 8.8682 14.3682 9.16668 14 9.16668H8.66671V14.5C8.66671 14.8682 8.36823 15.1667 8.00004 15.1667C7.63185 15.1667 7.33337 14.8682 7.33337 14.5V9.16668H2.00004C1.63185 9.16668 1.33337 8.8682 1.33337 8.50001C1.33337 8.13182 1.63185 7.83334 2.00004 7.83334H7.33337V2.50001C7.33337 2.13182 7.63185 1.83334 8.00004 1.83334C8.36823 1.83334 8.66671 2.13182 8.66671 2.50001V7.83334H14C14.3682 7.83334 14.6667 8.13182 14.6667 8.50001Z" fill="#231F20"/>
</svg>
