<svg width="16" height="17" viewBox="0 0 16 17" fill="none" xmlns="http://www.w3.org/2000/svg">
<path d="M14.6666 8.5C14.6666 8.86819 14.3681 9.16667 13.9999 9.16667H3.44659L6.50659 12.7333C6.74591 13.0132 6.71308 13.434 6.43325 13.6733C6.15343 13.9127 5.73258 13.8798 5.49325 13.6L1.49325 8.93334C1.46937 8.90011 1.44925 8.86434 1.43325 8.82667C1.41319 8.8016 1.39534 8.77484 1.37992 8.74667C1.35103 8.66754 1.33527 8.58422 1.33325 8.5C1.33527 8.41579 1.35103 8.33247 1.37992 8.25334C1.39534 8.22517 1.41319 8.19841 1.43325 8.17334C1.44925 8.13567 1.46937 8.0999 1.49325 8.06667L5.49325 3.40001C5.73258 3.12018 6.15343 3.08735 6.43325 3.32667C6.71308 3.566 6.74591 3.98685 6.50659 4.26667L3.44659 7.83334H13.9999C14.3681 7.83334 14.6666 8.13181 14.6666 8.5Z" fill="#231F20"/>
</svg>
