<svg width="20" height="20" viewBox="0 0 20 20" fill="none" xmlns="http://www.w3.org/2000/svg">
<path d="M19.7099 18.29C19.8993 18.4777 20.0057 18.7333 20.0057 19C20.0057 19.2666 19.8993 19.5222 19.7099 19.71C19.5222 19.8993 19.2666 20.0058 18.9999 20.0058C18.7333 20.0058 18.4777 19.8993 18.2899 19.71L9.99994 11.41L1.70994 19.71C1.52217 19.8993 1.26658 20.0058 0.999939 20.0058C0.733301 20.0058 0.477706 19.8993 0.289939 19.71C0.100626 19.5222 -0.00585938 19.2666 -0.00585938 19C-0.00585938 18.7333 0.100626 18.4777 0.289939 18.29L8.58994 9.99996L0.289939 1.70996C0.0362804 1.45631 -0.0627846 1.08659 0.0300609 0.740086C0.122906 0.393582 0.393557 0.122932 0.740061 0.0300861C1.08656 -0.0627594 1.45628 0.0363055 1.70994 0.289964L9.99994 8.58996L18.2899 0.289964C18.6821 -0.102158 19.3178 -0.102158 19.7099 0.289964C20.1021 0.682086 20.1021 1.31784 19.7099 1.70996L11.4099 9.99996L19.7099 18.29Z" fill="#231F20"/>
</svg>
