<svg width="220" height="44" viewBox="0 0 220 44" fill="none" xmlns="http://www.w3.org/2000/svg">
<rect x="0.5" width="219" height="44" rx="10" fill="url(#paint0_linear_34_27098)"/>
<path d="M38.612 28.66C37.4813 28.66 36.5053 28.4307 35.684 27.972C34.8627 27.5133 34.228 26.836 33.78 25.94C33.3427 25.044 33.124 23.9507 33.124 22.66C33.124 21.4333 33.332 20.3773 33.748 19.492C34.1747 18.596 34.7987 17.908 35.62 17.428C36.4413 16.9373 37.4493 16.692 38.644 16.692C39.6467 16.692 40.5213 16.868 41.268 17.22C42.0147 17.5613 42.6067 18.0467 43.044 18.676C43.492 19.2947 43.764 20.02 43.86 20.852L41.316 21.204C41.1987 20.4787 40.9107 19.924 40.452 19.54C39.9933 19.1453 39.3853 18.948 38.628 18.948C37.7213 18.948 37.0173 19.2627 36.516 19.892C36.0253 20.5107 35.78 21.4333 35.78 22.66C35.78 23.8547 36.02 24.7773 36.5 25.428C36.98 26.0787 37.6893 26.404 38.628 26.404C39.4067 26.404 40.0307 26.2067 40.5 25.812C40.9693 25.4173 41.2573 24.8573 41.364 24.132L43.908 24.42C43.812 25.316 43.5293 26.084 43.06 26.724C42.5907 27.3533 41.972 27.8333 41.204 28.164C40.4467 28.4947 39.5827 28.66 38.612 28.66ZM49.6055 28.66C48.6668 28.66 47.8508 28.4627 47.1575 28.068C46.4642 27.6733 45.9255 27.1187 45.5415 26.404C45.1682 25.6893 44.9815 24.8573 44.9815 23.908C44.9815 22.948 45.1735 22.1107 45.5575 21.396C45.9415 20.6813 46.4748 20.1267 47.1575 19.732C47.8508 19.3267 48.6668 19.124 49.6055 19.124C50.5335 19.124 51.3388 19.3267 52.0215 19.732C52.7148 20.1267 53.2482 20.6813 53.6215 21.396C54.0055 22.1107 54.1975 22.9427 54.1975 23.892C54.1975 24.852 54.0055 25.6893 53.6215 26.404C53.2482 27.1187 52.7148 27.6733 52.0215 28.068C51.3388 28.4627 50.5335 28.66 49.6055 28.66ZM49.5895 26.644C50.2615 26.644 50.7842 26.404 51.1575 25.924C51.5415 25.444 51.7335 24.7667 51.7335 23.892C51.7335 23.0173 51.5415 22.34 51.1575 21.86C50.7842 21.38 50.2668 21.14 49.6055 21.14C48.9228 21.14 48.3895 21.3853 48.0055 21.876C47.6322 22.356 47.4455 23.028 47.4455 23.892C47.4455 24.7667 47.6322 25.444 48.0055 25.924C48.3895 26.404 48.9175 26.644 49.5895 26.644ZM55.6944 28.5V19.284H57.9824L58.0784 20.532C58.4304 20.0413 58.8304 19.684 59.2784 19.46C59.737 19.236 60.2704 19.124 60.8784 19.124C61.8277 19.124 62.5797 19.396 63.1344 19.94C63.6997 20.4733 63.9824 21.2573 63.9824 22.292V28.5H61.5024V22.692C61.5024 22.244 61.369 21.9027 61.1024 21.668C60.8464 21.4227 60.4784 21.3 59.9984 21.3C59.5077 21.3 59.0917 21.46 58.7504 21.78C58.409 22.0893 58.2224 22.516 58.1904 23.06V28.5H55.6944ZM65.8975 28.5V19.284H68.1855L68.2815 20.532C68.6335 20.0413 69.0335 19.684 69.4815 19.46C69.9402 19.236 70.4735 19.124 71.0815 19.124C72.0308 19.124 72.7828 19.396 73.3375 19.94C73.9028 20.4733 74.1855 21.2573 74.1855 22.292V28.5H71.7055V22.692C71.7055 22.244 71.5722 21.9027 71.3055 21.668C71.0495 21.4227 70.6815 21.3 70.2015 21.3C69.7108 21.3 69.2948 21.46 68.9535 21.78C68.6122 22.0893 68.4255 22.516 68.3935 23.06V28.5H65.8975ZM80.3406 28.66C79.4446 28.66 78.6446 28.4733 77.9406 28.1C77.2366 27.7267 76.682 27.188 76.2766 26.484C75.882 25.78 75.6846 24.9267 75.6846 23.924C75.6846 22.9533 75.8713 22.1107 76.2446 21.396C76.6286 20.6707 77.162 20.1107 77.8446 19.716C78.538 19.3213 79.3486 19.124 80.2766 19.124C81.226 19.124 82.042 19.3373 82.7246 19.764C83.4073 20.1907 83.914 20.8093 84.2446 21.62C84.5753 22.4307 84.6873 23.4227 84.5806 24.596H78.1806C78.266 25.3533 78.4953 25.9027 78.8686 26.244C79.2526 26.5853 79.754 26.756 80.3726 26.756C80.9166 26.756 81.3646 26.6387 81.7166 26.404C82.0793 26.1587 82.3033 25.8227 82.3886 25.396L84.5326 25.94C84.4046 26.484 84.1486 26.9587 83.7646 27.364C83.3806 27.7693 82.8953 28.0893 82.3086 28.324C81.722 28.548 81.066 28.66 80.3406 28.66ZM80.2286 20.996C79.6846 20.996 79.2366 21.1613 78.8846 21.492C78.5326 21.8227 78.3033 22.3133 78.1966 22.964H82.0686C82.058 22.3347 81.8873 21.8493 81.5566 21.508C81.2366 21.1667 80.794 20.996 80.2286 20.996ZM90.3083 28.66C89.3696 28.66 88.5536 28.4627 87.8603 28.068C87.1776 27.6627 86.6443 27.1027 86.2603 26.388C85.8869 25.6733 85.7003 24.8413 85.7003 23.892C85.7003 22.932 85.8923 22.1 86.2763 21.396C86.6603 20.6813 87.1936 20.1267 87.8763 19.732C88.5696 19.3267 89.3856 19.124 90.3243 19.124C91.5403 19.124 92.5109 19.4227 93.2362 20.02C93.9616 20.6173 94.3776 21.4067 94.4843 22.388L92.1483 22.708C92.0949 22.1747 91.8976 21.7853 91.5563 21.54C91.2256 21.284 90.8043 21.156 90.2923 21.156C89.6416 21.156 89.1243 21.396 88.7403 21.876C88.3669 22.356 88.1803 23.028 88.1803 23.892C88.1803 24.756 88.3669 25.428 88.7403 25.908C89.1136 26.388 89.6309 26.628 90.2923 26.628C90.8469 26.628 91.2896 26.4787 91.6203 26.18C91.9616 25.8813 92.1483 25.4653 92.1803 24.932L94.5483 25.268C94.4843 25.9613 94.2656 26.564 93.8923 27.076C93.5296 27.5773 93.0389 27.9667 92.4203 28.244C91.8016 28.5213 91.0976 28.66 90.3083 28.66ZM98.7288 28.644C97.9608 28.644 97.4008 28.468 97.0488 28.116C96.6968 27.7533 96.5208 27.2253 96.5208 26.532V21.028L95.3368 21.076V19.284L96.5208 19.332V16.9L98.9688 16.74V19.348L100.489 19.284V21.076L98.9688 21.028V25.7C98.9688 26.0413 99.0114 26.276 99.0968 26.404C99.1821 26.5213 99.3741 26.58 99.6727 26.58C99.8434 26.58 99.9981 26.564 100.137 26.532C100.275 26.5 100.387 26.4627 100.473 26.42V28.356C100.249 28.4413 99.9714 28.5107 99.6408 28.564C99.3208 28.6173 99.0168 28.644 98.7288 28.644ZM107.113 28.5L104.537 19.284H107.145L108.537 25.956L109.977 19.284H112.553L114.041 25.812L115.417 19.284H117.929L115.353 28.5H112.585L111.241 22.404L109.929 28.5H107.113ZM121.538 28.66C120.588 28.66 119.842 28.42 119.298 27.94C118.754 27.46 118.482 26.8253 118.482 26.036C118.482 25.2253 118.738 24.5907 119.25 24.132C119.762 23.6733 120.444 23.3693 121.298 23.22L123.298 22.884C123.639 22.82 123.874 22.7133 124.002 22.564C124.14 22.4147 124.21 22.212 124.21 21.956C124.21 21.2947 123.735 20.964 122.786 20.964C122.242 20.964 121.82 21.0813 121.522 21.316C121.234 21.5507 121.09 21.9133 121.09 22.404L118.818 22.148C118.807 21.1987 119.17 20.4573 119.906 19.924C120.642 19.3907 121.618 19.124 122.834 19.124C124.178 19.124 125.159 19.3853 125.778 19.908C126.396 20.4307 126.706 21.156 126.706 22.084V26.052C126.706 26.3187 126.759 26.4947 126.866 26.58C126.972 26.6653 127.1 26.708 127.25 26.708C127.367 26.708 127.458 26.6973 127.522 26.676H127.618V28.404C127.468 28.4787 127.276 28.532 127.042 28.564C126.818 28.596 126.61 28.612 126.418 28.612C125.906 28.612 125.484 28.5053 125.154 28.292C124.834 28.0787 124.636 27.7533 124.562 27.316L124.546 27.14C124.279 27.62 123.879 27.9933 123.346 28.26C122.823 28.5267 122.22 28.66 121.538 28.66ZM122.306 26.868C122.839 26.868 123.276 26.7453 123.618 26.5C123.97 26.2547 124.188 25.9133 124.274 25.476V24.228C124.156 24.2813 124.018 24.3293 123.858 24.372C123.708 24.4147 123.532 24.4573 123.33 24.5L122.13 24.724C121.703 24.8093 121.404 24.9533 121.234 25.156C121.074 25.348 120.994 25.5667 120.994 25.812C120.994 26.1533 121.111 26.4147 121.346 26.596C121.58 26.7773 121.9 26.868 122.306 26.868ZM128.804 28.5V15.86H131.3V28.5H128.804ZM133.241 28.5V15.86H135.737V28.5H133.241ZM141.919 28.66C141.023 28.66 140.223 28.4733 139.519 28.1C138.815 27.7267 138.26 27.188 137.855 26.484C137.46 25.78 137.263 24.9267 137.263 23.924C137.263 22.9533 137.449 22.1107 137.823 21.396C138.207 20.6707 138.74 20.1107 139.423 19.716C140.116 19.3213 140.927 19.124 141.855 19.124C142.804 19.124 143.62 19.3373 144.303 19.764C144.985 20.1907 145.492 20.8093 145.823 21.62C146.153 22.4307 146.265 23.4227 146.159 24.596H139.759C139.844 25.3533 140.073 25.9027 140.447 26.244C140.831 26.5853 141.332 26.756 141.951 26.756C142.495 26.756 142.943 26.6387 143.295 26.404C143.657 26.1587 143.881 25.8227 143.967 25.396L146.111 25.94C145.983 26.484 145.727 26.9587 145.343 27.364C144.959 27.7693 144.473 28.0893 143.887 28.324C143.3 28.548 142.644 28.66 141.919 28.66ZM141.807 20.996C141.263 20.996 140.815 21.1613 140.463 21.492C140.111 21.8227 139.881 22.3133 139.775 22.964H143.647C143.636 22.3347 143.465 21.8493 143.135 21.508C142.815 21.1667 142.372 20.996 141.807 20.996ZM150.291 28.644C149.523 28.644 148.963 28.468 148.611 28.116C148.259 27.7533 148.083 27.2253 148.083 26.532V21.028L146.899 21.076V19.284L148.083 19.332V16.9L150.531 16.74V19.348L152.051 19.284V21.076L150.531 21.028V25.7C150.531 26.0413 150.574 26.276 150.659 26.404C150.745 26.5213 150.937 26.58 151.235 26.58C151.406 26.58 151.561 26.564 151.699 26.532C151.838 26.5 151.95 26.4627 152.035 26.42V28.356C151.811 28.4413 151.534 28.5107 151.203 28.564C150.883 28.6173 150.579 28.644 150.291 28.644Z" fill="#58303A"/>
<path fill-rule="evenodd" clip-rule="evenodd" d="M182.5 32C184.157 32 185.5 30.6569 185.5 29V15C185.5 13.3431 184.157 12 182.5 12H168.5C166.843 12 165.5 13.3431 165.5 15V29C165.5 30.6569 166.843 32 168.5 32H182.5ZM179.5 20C178.395 20 177.5 20.8954 177.5 22C177.5 23.1046 178.395 24 179.5 24C180.605 24 181.5 23.1046 181.5 22C181.5 20.8954 180.605 20 179.5 20ZM183.5 19H176.5C175.948 19 175.5 19.4477 175.5 20V24C175.5 24.5523 175.948 25 176.5 25H183.5V19ZM182.5 14C183.052 14 183.5 14.4477 183.5 15V17H176.5C174.843 17 173.5 18.3431 173.5 20V24C173.5 25.6569 174.843 27 176.5 27H183.5V29C183.5 29.5523 183.052 30 182.5 30H168.5C167.948 30 167.5 29.5523 167.5 29V15C167.5 14.4477 167.948 14 168.5 14H182.5Z" fill="#FBF1F3"/>
<defs>
<linearGradient id="paint0_linear_34_27098" x1="1" y1="-1.27191e-07" x2="220" y2="44" gradientUnits="userSpaceOnUse">
<stop stop-color="#F4BECC"/>
<stop offset="1" stop-color="#D19DDE"/>
</linearGradient>
</defs>
</svg>
