<svg width="32" height="32" viewBox="0 0 32 32" fill="none" xmlns="http://www.w3.org/2000/svg">
<g id="Symbol">
<g id="logo">
<g id="ears">
<g id="Group">
<path id="Vector" d="M5.22337 3.08878L1.83594 8.94092L4.22689 10.3178L7.61432 4.46565L5.22337 3.08878Z" fill="#FFA6C6"/>
<path id="Vector_2" d="M6.46555 3.80265L3.07812 9.65479L5.46907 11.0317L8.8565 5.17952L6.46555 3.80265Z" fill="#FFC7D4"/>
</g>
<g id="Group_2">
<path id="Vector_3" d="M24.3811 4.465L27.7686 10.3171L30.1595 8.94027L26.7721 3.08813L24.3811 4.465Z" fill="#FFA6C6"/>
<path id="Vector_4" d="M23.1428 5.1796L26.5303 11.0317L28.9212 9.65487L25.5338 3.80273L23.1428 5.1796Z" fill="#FFC7D4"/>
</g>
</g>
<path id="belly6" d="M31.0602 16.0098L23.5295 29.0202H8.46818L0.9375 16.0098L3.25556 12.0056C3.38378 18.9165 9.04018 24.4789 15.9989 24.4789C22.9575 24.4789 28.6144 18.917 28.7427 12.0061L31.0602 16.0098Z" fill="#E38197"/>
<path id="bat" d="M32 26.1836C32 27.1248 31.6659 27.8882 31.2547 27.8882C31.2522 27.8882 31.2492 27.8882 31.2467 27.8882C31.2432 27.8882 31.2387 27.8882 31.2332 27.8877H31.2327C30.878 27.8762 26.3752 27.7323 24.8996 27.7323C23.424 27.7323 9.73904 26.6957 9.73904 26.6957L1.05585 26.6952C0.968194 27.1138 0.776359 27.4046 0.553469 27.4046C0.247934 27.4046 0 26.858 0 26.1836C0 25.5091 0.247433 24.9626 0.553469 24.9626C0.776359 24.9626 0.968194 25.2529 1.05585 25.672H9.73904C9.73904 25.672 23.3629 24.6354 24.8996 24.6354C26.4363 24.6354 30.878 24.4915 31.2327 24.48H31.2332C31.2392 24.48 31.2437 24.4795 31.2467 24.4795C31.2492 24.4795 31.2522 24.4795 31.2547 24.4795C31.6664 24.4795 32 25.2429 32 26.1841V26.1836Z" fill="#CFA14C"/>
<g id="Group_3">
<path id="Vector_5" d="M14.8329 26.3735C14.8329 27.6445 14.4933 28.2545 14.1317 28.2545C13.7701 28.2545 13.5226 27.9163 13.4265 27.5666C13.3303 27.9163 13.0829 28.2545 12.7212 28.2545C12.3596 28.2545 12.0205 27.644 12.0205 26.3735H14.8329Z" fill="#C2687D"/>
<path id="Vector_6" d="M19.98 26.3735C19.98 27.6445 19.6404 28.2545 19.2788 28.2545C18.9172 28.2545 18.6697 27.9163 18.5736 27.5666C18.4774 27.9163 18.23 28.2545 17.8683 28.2545C17.5067 28.2545 17.1676 27.644 17.1676 26.3735H19.98Z" fill="#C2687D"/>
<path id="Vector_7" d="M28.7433 12.0061C28.6406 17.5366 24.9977 22.2033 19.9799 23.8469V26.3734H17.1675V24.426C16.7828 24.4609 16.3932 24.4789 15.9995 24.4789C15.6058 24.4789 15.2161 24.4609 14.8314 24.426V26.3734H12.019V23.8464C7.00172 22.2028 3.35884 17.5361 3.25616 12.0056L8.46879 3H23.5301L28.7433 12.0061Z" fill="#FFA6C6"/>
</g>
<g id="nose">
<path id="Vector_8" d="M15.9996 16.3684C10.7253 16.3684 10.1914 12.9392 10.1914 11.6073C10.1914 10.2753 11.4767 8.6272 15.9996 8.6272C20.5225 8.6272 21.8077 10.2753 21.8077 11.6073C21.8077 12.9392 21.2738 16.3684 15.9996 16.3684Z" fill="#FFC7D4"/>
<g id="Group_4">
<path id="Vector_9" d="M13.6007 12.9761C14.4856 12.9761 15.203 12.2131 15.203 11.272C15.203 10.3308 14.4856 9.56787 13.6007 9.56787C12.7157 9.56787 11.9984 10.3308 11.9984 11.272C11.9984 12.2131 12.7157 12.9761 13.6007 12.9761Z" fill="#C2687D"/>
<path id="Vector_10" d="M18.3754 12.9761C19.2603 12.9761 19.9777 12.2131 19.9777 11.272C19.9777 10.3308 19.2603 9.56787 18.3754 9.56787C17.4904 9.56787 16.7731 10.3308 16.7731 11.272C16.7731 12.2131 17.4904 12.9761 18.3754 12.9761Z" fill="#C2687D"/>
</g>
</g>
<g id="cheeks">
<g id="Group_5">
<path id="Vector_11" d="M24.3106 14.8487C25.1056 14.8487 25.7501 14.2059 25.7501 13.4129C25.7501 12.6199 25.1056 11.9771 24.3106 11.9771C23.5156 11.9771 22.8711 12.6199 22.8711 13.4129C22.8711 14.2059 23.5156 14.8487 24.3106 14.8487Z" fill="#F75B5F"/>
<path id="Vector_12" d="M7.68952 14.8487C8.48454 14.8487 9.12904 14.2059 9.12904 13.4129C9.12904 12.6199 8.48454 11.9771 7.68952 11.9771C6.89449 11.9771 6.25 12.6199 6.25 13.4129C6.25 14.2059 6.89449 14.8487 7.68952 14.8487Z" fill="#F75B5F"/>
</g>
</g>
<g id="eyes">
<path id="Vector_13" d="M20.5074 8.03575C21.2676 7.68955 21.7907 7.20544 21.6758 6.95444C21.5609 6.70345 20.8515 6.78063 20.0913 7.12682C19.3311 7.47302 18.808 7.95713 18.9229 8.20813C19.0378 8.45912 19.7472 8.38194 20.5074 8.03575Z" fill="white"/>
<path id="Vector_14" d="M13.0742 8.20766C13.1891 7.95667 12.666 7.47255 11.9058 7.12636C11.1456 6.78017 10.4362 6.70299 10.3213 6.95398C10.2064 7.20498 10.7295 7.68909 11.4897 8.03529C12.25 8.38148 12.9594 8.45866 13.0742 8.20766Z" fill="#FD0002"/>
</g>
</g>
</g>
</svg>
