<svg width="162" height="32" viewBox="0 0 162 32" fill="none" xmlns="http://www.w3.org/2000/svg">
<path d="M5.22337 3.08896L1.83594 8.9411L4.22689 10.318L7.61432 4.46583L5.22337 3.08896Z" fill="#FFA6C6"/>
<path d="M6.46555 3.80283L3.07812 9.65497L5.46907 11.0318L8.8565 5.1797L6.46555 3.80283Z" fill="#FFC7D4"/>
<path d="M24.3811 4.465L27.7686 10.3171L30.1595 8.94027L26.7721 3.08813L24.3811 4.465Z" fill="#FFA6C6"/>
<path d="M23.1428 5.17966L26.5303 11.0318L28.9212 9.65493L25.5338 3.80279L23.1428 5.17966Z" fill="#FFC7D4"/>
<path d="M31.0602 16.0099L23.5295 29.0202H8.46818L0.9375 16.0099L3.25556 12.0057C3.38378 18.9165 9.04018 24.479 15.9989 24.479C22.9575 24.479 28.6144 18.917 28.7427 12.0062L31.0602 16.0099Z" fill="#E38197"/>
<path d="M32 26.1836C32 27.1248 31.6659 27.8882 31.2547 27.8882C31.2522 27.8882 31.2492 27.8882 31.2467 27.8882C31.2432 27.8882 31.2387 27.8882 31.2332 27.8877H31.2327C30.878 27.8762 26.3752 27.7323 24.8996 27.7323C23.424 27.7323 9.73904 26.6957 9.73904 26.6957L1.05585 26.6952C0.968194 27.1138 0.776359 27.4046 0.553469 27.4046C0.247934 27.4046 0 26.858 0 26.1836C0 25.5091 0.247433 24.9626 0.553469 24.9626C0.776359 24.9626 0.968194 25.2529 1.05585 25.672H9.73904C9.73904 25.672 23.3629 24.6354 24.8996 24.6354C26.4363 24.6354 30.878 24.4915 31.2327 24.48H31.2332C31.2392 24.48 31.2437 24.4795 31.2467 24.4795C31.2492 24.4795 31.2522 24.4795 31.2547 24.4795C31.6664 24.4795 32 25.2429 32 26.1841V26.1836Z" fill="#CFA14C"/>
<path d="M14.8329 26.3735C14.8329 27.6445 14.4933 28.2545 14.1317 28.2545C13.7701 28.2545 13.5226 27.9163 13.4265 27.5666C13.3303 27.9163 13.0829 28.2545 12.7212 28.2545C12.3596 28.2545 12.0205 27.644 12.0205 26.3735H14.8329Z" fill="#C2687D"/>
<path d="M19.9799 26.3735C19.9799 27.6445 19.6403 28.2545 19.2787 28.2545C18.917 28.2545 18.6696 27.9163 18.5734 27.5666C18.4773 27.9163 18.2298 28.2545 17.8682 28.2545C17.5066 28.2545 17.1675 27.644 17.1675 26.3735H19.9799Z" fill="#C2687D"/>
<path d="M28.7432 12.0061C28.6405 17.5366 24.9977 22.2033 19.9799 23.8469V26.3734H17.1674V24.426C16.7828 24.4609 16.3931 24.4789 15.9994 24.4789C15.6057 24.4789 15.216 24.4609 14.8314 24.426V26.3734H12.0189V23.8464C7.00166 22.2028 3.35878 17.5361 3.2561 12.0056L8.46873 3H23.5301L28.7432 12.0061Z" fill="#FFA6C6"/>
<path d="M15.9996 16.3684C10.7253 16.3684 10.1914 12.9392 10.1914 11.6073C10.1914 10.2754 11.4767 8.62726 15.9996 8.62726C20.5225 8.62726 21.8077 10.2754 21.8077 11.6073C21.8077 12.9392 21.2738 16.3684 15.9996 16.3684Z" fill="#FFC7D4"/>
<path d="M13.6006 12.9762C14.4855 12.9762 15.2029 12.2132 15.2029 11.2721C15.2029 10.3309 14.4855 9.56799 13.6006 9.56799C12.7157 9.56799 11.9983 10.3309 11.9983 11.2721C11.9983 12.2132 12.7157 12.9762 13.6006 12.9762Z" fill="#C2687D"/>
<path d="M18.3753 12.9762C19.2602 12.9762 19.9776 12.2132 19.9776 11.2721C19.9776 10.3309 19.2602 9.56799 18.3753 9.56799C17.4903 9.56799 16.7729 10.3309 16.7729 11.2721C16.7729 12.2132 17.4903 12.9762 18.3753 12.9762Z" fill="#C2687D"/>
<path d="M24.3106 14.8487C25.1056 14.8487 25.7501 14.2059 25.7501 13.4129C25.7501 12.6199 25.1056 11.9771 24.3106 11.9771C23.5156 11.9771 22.8711 12.6199 22.8711 13.4129C22.8711 14.2059 23.5156 14.8487 24.3106 14.8487Z" fill="#F75B5F"/>
<path d="M7.68952 14.8487C8.48454 14.8487 9.12904 14.2059 9.12904 13.4129C9.12904 12.6199 8.48454 11.9771 7.68952 11.9771C6.89449 11.9771 6.25 12.6199 6.25 13.4129C6.25 14.2059 6.89449 14.8487 7.68952 14.8487Z" fill="#F75B5F"/>
<path d="M20.5074 8.03569C21.2676 7.68949 21.7907 7.20538 21.6758 6.95438C21.5609 6.70339 20.8515 6.78057 20.0913 7.12676C19.3311 7.47296 18.808 7.95707 18.9229 8.20806C19.0378 8.45906 19.7472 8.38188 20.5074 8.03569Z" fill="white"/>
<path d="M13.0742 8.2076C13.1891 7.95661 12.666 7.47249 11.9058 7.1263C11.1456 6.7801 10.4362 6.70293 10.3213 6.95392C10.2064 7.20492 10.7295 7.68903 11.4897 8.03523C12.25 8.38142 12.9594 8.4586 13.0742 8.2076Z" fill="#FD0002"/>
<path d="M43 21.9955V6.02667H50.7394C52.0291 6.02667 53.1749 6.28547 54.1766 6.8023C55.1782 7.31951 55.9556 8.02268 56.5096 8.91259C57.0636 9.80212 57.3404 10.7796 57.3404 11.8438C57.3404 12.9081 57.0632 13.8856 56.5096 14.7751C55.9556 15.6646 55.1778 16.3682 54.1766 16.8854C53.1749 17.4026 52.0291 17.661 50.7394 17.661H47.2111V21.9955H43ZM50.6258 13.7829C51.3997 13.7829 51.9916 13.6082 52.4014 13.2583C52.8111 12.9085 53.016 12.437 53.016 11.8438C53.016 11.2507 52.8111 10.7796 52.4014 10.4294C51.9916 10.0795 51.3997 9.90478 50.6258 9.90478H47.2115V13.7829H50.6258ZM61.2105 8.87811C60.6032 8.87811 60.0913 8.6844 59.6738 8.29659C59.2563 7.90878 59.0479 7.45627 59.0479 6.93906C59.0479 6.42184 59.2528 5.95074 59.6626 5.57029C60.0724 5.19023 60.5881 5 61.2105 5C61.8329 5 62.3486 5.19023 62.7584 5.57029C63.1681 5.95074 63.373 6.40674 63.373 6.93906C63.373 7.47138 63.1643 7.90878 62.7472 8.29659C62.3296 8.6844 61.8174 8.87811 61.2105 8.87811ZM59.2756 21.9955V10.133H63.1453V21.9955H59.2756ZM66.6737 26.33V23.2504H74.0718V20.1707H73.8441C73.6465 20.4753 73.381 20.7565 73.0473 21.0149C72.7133 21.2737 72.3151 21.4826 71.8524 21.6422C71.3893 21.8018 70.877 21.8816 70.3157 21.8816C69.3597 21.8816 68.4833 21.6306 67.6866 21.1288C66.8898 20.6271 66.2562 19.9162 65.7857 18.9957C65.3152 18.0756 65.0802 17.0225 65.0802 15.8362C65.0802 14.65 65.3152 13.5969 65.7857 12.6768C66.2558 11.7567 66.8898 11.0457 67.6866 10.5436C68.4833 10.0415 69.3597 9.79088 70.3157 9.79088C70.877 9.79088 71.3893 9.87844 71.8524 10.0532C72.3151 10.2283 72.7133 10.4522 73.0473 10.7261C73.381 11 73.6465 11.2964 73.8441 11.6156H74.0718V10.133H77.9415V26.33H66.6737ZM71.5679 18.5738C72.0534 18.5738 72.486 18.4637 72.8653 18.2429C73.2445 18.0225 73.5402 17.7067 73.7529 17.2961C73.9651 16.8854 74.0714 16.3988 74.0714 15.8362C74.0714 15.2737 73.9651 14.7867 73.7529 14.3764C73.5402 13.9658 73.2441 13.6504 72.8653 13.4296C72.4856 13.2091 72.0534 13.0987 71.5679 13.0987C71.0823 13.0987 70.6493 13.2091 70.2705 13.4296C69.8909 13.65 69.5951 13.9658 69.3829 14.3764C69.1703 14.7871 69.0643 15.2741 69.0643 15.8362C69.0643 16.3984 69.1703 16.8858 69.3829 17.2961C69.5951 17.7067 69.8913 18.0225 70.2705 18.2429C70.6497 18.4634 71.0823 18.5738 71.5679 18.5738ZM81.3558 26.33V23.2504H88.7539V20.1707H88.5262C88.3287 20.4753 88.0631 20.7565 87.7295 21.0149C87.3954 21.2737 86.9973 21.4826 86.5345 21.6422C86.0714 21.8018 85.5592 21.8816 84.9978 21.8816C84.0418 21.8816 83.1654 21.6306 82.3687 21.1288C81.5719 20.6271 80.9383 19.9162 80.4678 18.9957C79.9974 18.0756 79.7623 17.0225 79.7623 15.8362C79.7623 14.65 79.9974 13.5969 80.4678 12.6768C80.9379 11.7567 81.5719 11.0457 82.3687 10.5436C83.1654 10.0415 84.0418 9.79088 84.9978 9.79088C85.5592 9.79088 86.0714 9.87844 86.5345 10.0532C86.9973 10.2283 87.3954 10.4522 87.7295 10.7261C88.0631 11 88.3287 11.2964 88.5262 11.6156H88.7539V10.133H92.6236V26.33H81.3558ZM86.25 18.5738C86.7355 18.5738 87.1681 18.4637 87.5474 18.2429C87.9266 18.0225 88.2224 17.7067 88.435 17.2961C88.6472 16.8854 88.7535 16.3988 88.7535 15.8362C88.7535 15.2737 88.6472 14.7867 88.435 14.3764C88.2224 13.9658 87.9262 13.6504 87.5474 13.4296C87.1677 13.2091 86.7355 13.0987 86.25 13.0987C85.7644 13.0987 85.3315 13.2091 84.9526 13.4296C84.573 13.65 84.2772 13.9658 84.065 14.3764C83.8524 14.7871 83.7465 15.2741 83.7465 15.8362C83.7465 16.3984 83.8524 16.8858 84.065 17.2961C84.2772 17.7067 84.5734 18.0225 84.9526 18.2429C85.3318 18.4634 85.7644 18.5738 86.25 18.5738ZM98.4282 26.33L99.6803 21.9955H97.0628L93.9898 10.133H97.9732L100.022 18.6877H100.704L102.981 10.133H106.964L102.411 26.33H98.4278H98.4282ZM114.704 21.9955V6.02667H120.873C122.603 6.02667 124.139 6.38039 125.482 7.08744C126.825 7.79449 127.869 8.75646 128.612 9.97336C129.355 11.1903 129.727 12.5362 129.727 14.0111C129.727 15.486 129.355 16.8323 128.612 18.0488C127.868 19.2657 126.825 20.2273 125.482 20.9347C124.139 21.6422 122.603 21.9955 120.873 21.9955H114.704ZM120.85 18.1174C121.791 18.1174 122.591 17.9504 123.251 17.6157C123.911 17.2813 124.416 16.806 124.765 16.19C125.114 15.574 125.289 14.8479 125.289 14.0115C125.289 13.175 125.114 12.449 124.765 11.833C124.416 11.217 123.911 10.742 123.251 10.4073C122.591 10.0729 121.79 9.90556 120.85 9.90556H118.915V18.1182H120.85V18.1174ZM132.004 21.9955V6.02667H144.296V9.90478H136.215V12.3002H142.702V15.722H136.215V18.1174H144.296V21.9955H132.004ZM145.32 21.9955L149.303 14.125L145.661 6.02667H150.1L152.604 12.1859H153.742L156.246 6.02667H160.685L157.043 14.125L161.026 21.9955H156.473L153.742 16.064H152.603L149.872 21.9955H145.319H145.32Z" fill="#FFA6C6"/>
</svg>
