<svg xmlns="http://www.w3.org/2000/svg" width="218" height="210" viewBox="0 0 218 210" fill="none">
  <g clip-path="url(#clip0_113_3134)">
    <path d="M134.249 118.656L104.961 135.53L49.856 34.9893L79.144 18.0935L134.249 118.656Z" fill="#6DCBE8"/>
    <path d="M137.699 116.795L108.411 133.669L53.3054 33.1072L82.5935 16.2328L137.699 116.795Z" fill="#98DAF4"/>
    <path d="M94.0559 10.6722L42.0359 40.6569L53.6483 0L94.0559 10.6722Z" fill="#98DAF4"/>
    <path d="M42.0359 40.6569L38.5864 42.539L50.1988 1.88207L53.6482 0L42.0359 40.6569Z" fill="#6DCBE8"/>
    <path d="M119.616 184.763L34.1729 135.509L78.3299 110.079L163.752 159.313L119.616 184.763Z" fill="#EBF2FF"/>
    <path d="M119.959 182.71L37.7295 135.316L77.9658 112.133L160.195 159.505L119.959 182.71Z" fill="#3973D4"/>
    <path d="M146.997 156.661L82.9363 119.746C78.3513 122.398 71.4096 122.676 67.4245 120.388L65.2178 121.671L63.4823 122.676L52.0414 129.264C56.005 131.552 55.5122 135.552 50.9272 138.204L114.988 175.118C119.573 172.466 126.515 172.188 130.5 174.476L141.941 167.889L143.676 166.884L145.883 165.6C141.919 163.312 142.412 159.313 146.997 156.661Z" fill="#EBF2FF"/>
    <path d="M54.3338 137.134L55.2337 137.647L58.4474 135.808L57.6761 135.359L58.4689 134.91C59.0259 135.102 59.4758 135.188 60.0115 135.209L60.7185 135.616L56.2192 138.204L56.9905 138.653L55.9621 139.251L53.3054 137.733L54.3338 137.134Z" fill="#3973D4"/>
    <path d="M59.3258 137.99C61.2112 136.899 62.7753 136.685 63.6751 137.198C64.575 137.712 64.1893 138.61 62.3039 139.701C60.4185 140.791 58.8116 141.027 57.9118 140.513C57.0119 140 57.4404 139.08 59.3258 137.99ZM61.3826 139.187C62.9038 138.31 62.9895 137.968 62.6681 137.776C62.3468 137.583 61.7469 137.647 60.2257 138.524C58.7259 139.401 58.576 139.765 58.8973 139.957C59.2187 140.15 59.8615 140.064 61.3826 139.187Z" fill="#3973D4"/>
    <path d="M62.7968 139.979C64.6822 138.888 66.2462 138.674 67.1461 139.187C68.0459 139.701 67.6603 140.599 65.7749 141.69C63.8895 142.78 62.2826 143.016 61.3827 142.502C60.4829 141.989 60.9114 141.069 62.7968 139.979ZM64.8536 141.176C66.3748 140.3 66.4605 139.957 66.1391 139.765C65.8177 139.572 65.2178 139.636 63.6966 140.513C62.1969 141.39 62.0469 141.754 62.3683 141.946C62.6897 142.139 63.3324 142.053 64.8536 141.176Z" fill="#3973D4"/>
    <path d="M106.718 167.397L107.618 167.91L110.832 166.071L110.06 165.622L110.853 165.173C111.41 165.365 111.86 165.451 112.396 165.472L113.103 165.878L108.603 168.466L109.375 168.915L108.325 169.514L105.668 167.996L106.718 167.397Z" fill="#3973D4"/>
    <path d="M111.71 168.252C113.596 167.162 115.16 166.948 116.059 167.461C116.959 167.974 116.574 168.873 114.688 169.963C112.803 171.054 111.196 171.289 110.296 170.776C109.396 170.263 109.825 169.343 111.71 168.252ZM113.767 169.45C115.288 168.573 115.374 168.231 115.052 168.038C114.731 167.846 114.131 167.91 112.61 168.787C111.11 169.664 110.96 170.027 111.282 170.22C111.603 170.412 112.246 170.327 113.767 169.45Z" fill="#3973D4"/>
    <path d="M115.181 170.241C117.066 169.151 118.63 168.937 119.53 169.45C120.43 169.963 120.044 170.862 118.159 171.952C116.273 173.043 114.667 173.278 113.767 172.765C112.867 172.252 113.295 171.332 115.181 170.241ZM117.238 171.439C118.759 170.562 118.845 170.22 118.523 170.028C118.202 169.835 117.602 169.899 116.081 170.776C114.581 171.653 114.431 172.017 114.752 172.209C115.074 172.401 115.716 172.316 117.238 171.439Z" fill="#3973D4"/>
    <path d="M109.546 153.538C101.49 158.179 90.1566 159.184 84.2432 155.784C78.3299 152.383 80.0654 145.839 88.1212 141.198C96.177 136.557 107.511 135.552 113.424 138.952C119.337 142.353 117.602 148.897 109.546 153.538Z" fill="#61BCB8"/>
    <path d="M108.218 152.768C101.062 156.896 91.0136 157.773 85.7645 154.757C80.5154 151.742 82.058 145.946 89.2139 141.818C96.3699 137.69 106.418 136.813 111.667 139.829C116.917 142.845 115.374 148.64 108.218 152.768Z" fill="#53B7B7"/>
    <path d="M79.9369 134.888C76.5303 136.856 71.3668 137.07 68.4102 135.359C65.4535 133.648 65.8177 130.675 69.2457 128.708C72.6523 126.74 77.8158 126.526 80.7724 128.237C83.7291 129.948 83.3649 132.921 79.9369 134.888Z" fill="#3973D4"/>
    <path d="M78.3298 133.969C75.9516 135.338 72.3308 135.487 70.2526 134.311C68.1743 133.113 68.4529 131.039 70.831 129.67C73.2092 128.301 76.8301 128.152 78.9083 129.328C80.9865 130.526 80.708 132.6 78.3298 133.969Z" fill="#2F5BC1"/>
    <path d="M132.064 164.937C128.657 166.905 123.494 167.119 120.537 165.408C117.581 163.697 117.945 160.724 121.373 158.757C124.78 156.789 129.943 156.575 132.9 158.286C135.856 159.997 135.492 162.97 132.064 164.937Z" fill="#3973D4"/>
    <path d="M130.457 164.018C128.079 165.387 124.458 165.536 122.38 164.36C120.302 163.162 120.58 161.088 122.958 159.719C125.336 158.35 128.957 158.201 131.035 159.377C133.114 160.574 132.835 162.649 130.457 164.018Z" fill="#2F5BC1"/>
    <path d="M98.748 131.445L81.4365 121.457L82.2721 120.965L99.5836 130.953L98.748 131.445Z" fill="#3973D4"/>
    <path d="M90.285 127.959L80.2152 122.163L79.3796 122.655L89.4494 128.451L90.285 127.959Z" fill="#3973D4"/>
    <path d="M71.1097 138.973L61.0399 133.156L60.2043 133.648L70.2741 139.465L71.1097 138.973Z" fill="#3973D4"/>
    <path d="M144.255 157.666L126.943 147.699L127.8 147.208L145.09 157.174L144.255 157.666Z" fill="#3973D4"/>
    <path d="M143.034 158.372L132.964 152.554L132.128 153.046L142.198 158.864L143.034 158.372Z" fill="#3973D4"/>
    <path d="M123.858 169.365L113.788 163.569L112.953 164.039L123.023 169.856L123.858 169.365Z" fill="#3973D4"/>
    <path d="M34.1729 135.509V144.641L119.616 193.874V184.763L34.1729 135.509Z" fill="#ACC2E2"/>
    <path d="M163.752 159.313V168.445L119.616 193.874V184.763L163.752 159.313Z" fill="#D2E1F9"/>
    <path d="M115.824 187.736C113.274 185.982 110.36 184.678 107.597 183.266C105.154 182.004 102.69 180.657 100.076 179.737C100.012 179.716 99.9692 179.801 100.034 179.844C102.626 181.555 105.518 182.838 108.282 184.271C110.725 185.555 113.124 186.987 115.695 188.035C115.867 188.1 115.952 187.843 115.824 187.736Z" fill="#8FADD1"/>
    <path d="M110.403 182.967C104.04 177.705 96.2198 173.492 88.8281 169.878C88.721 169.835 88.6353 170.006 88.721 170.07C95.8341 174.433 102.84 179.309 110.167 183.33C110.403 183.459 110.617 183.159 110.403 182.988V182.967Z" fill="#8FADD1"/>
    <path d="M57.3548 154.693C53.9054 152.255 50.2417 150.18 46.578 148.084C43.2357 146.181 39.8934 144.128 36.3368 142.631C36.2082 142.588 36.1226 142.759 36.2297 142.845C39.572 145.069 43.2142 146.908 46.6851 148.918C50.1774 150.95 53.6054 153.089 57.1834 154.95C57.3548 155.035 57.5048 154.821 57.3548 154.714V154.693Z" fill="#8FADD1"/>
    <path d="M79.1869 164.916C76.8944 163.269 74.4091 161.922 71.988 160.51C69.8669 159.291 67.7887 157.88 65.4962 157.003C65.3463 156.939 65.2606 157.152 65.3677 157.238C67.5102 159.013 70.124 160.296 72.5237 161.708C74.6447 162.948 76.7444 164.253 78.994 165.301C79.2297 165.408 79.3797 165.044 79.1869 164.916Z" fill="#C5CED3"/>
    <path d="M48.2919 146.16C46.5565 144.983 44.5854 144.192 42.7214 143.251C40.8574 142.289 39.0363 141.219 37.108 140.364C37.0223 140.321 36.8938 140.449 37.0009 140.513C40.1504 142.951 44.2854 145.432 48.1419 146.523C48.3776 146.587 48.4848 146.288 48.2919 146.16Z" fill="#8FADD1"/>
    <path d="M139.563 179.652C143.012 177.214 146.676 175.139 150.34 173.043C153.682 171.14 157.024 169.086 160.581 167.589C160.709 167.547 160.795 167.718 160.688 167.803C157.346 170.028 153.703 171.867 150.233 173.877C146.74 175.909 143.312 178.048 139.734 179.908C139.563 179.994 139.413 179.78 139.563 179.673V179.652Z" fill="#ACC2E2"/>
    <path d="M148.626 171.14C150.361 169.963 152.332 169.172 154.196 168.231C156.06 167.269 157.881 166.199 159.809 165.344C159.895 165.301 160.024 165.429 159.917 165.493C156.767 167.932 152.632 170.413 148.775 171.503C148.54 171.567 148.433 171.268 148.626 171.14Z" fill="#ACC2E2"/>
    <path d="M133.157 141.668L88.9139 167.055L65.9248 153.816L110.168 128.43L133.157 141.668Z" fill="#3973D4"/>
    <path d="M130.779 140.321L86.5357 165.707L67.7888 154.885L112.032 129.499L130.779 140.321Z" fill="#FFE375"/>
    <path d="M88.9139 167.055L65.9248 153.816V162.948L88.9139 176.187V167.055Z" fill="#2F5BC1"/>
    <path d="M67.7888 154.885V164.018L86.5357 174.818V165.707L67.7888 154.885Z" fill="#FFA300"/>
    <path d="M118.181 165.579L32.759 116.346L76.8947 90.8953L162.338 140.128L118.181 165.579Z" fill="#EBF2FF"/>
    <path d="M118.524 163.526L36.3157 116.132L76.5519 92.9484L158.76 140.342L118.524 163.526Z" fill="#3973D4"/>
    <path d="M145.583 137.476L81.5225 100.562C76.9375 103.214 69.9958 103.492 66.0107 101.204L63.8039 102.487L62.0685 103.492L50.6275 110.08C54.5912 112.368 54.0984 116.367 49.5134 119.019L113.574 155.933C118.159 153.281 125.101 153.003 129.086 155.292L140.527 148.705L142.263 147.699L144.469 146.416C140.506 144.128 140.998 140.128 145.583 137.476Z" fill="#EBF2FF"/>
    <path d="M52.9201 117.95L53.8199 118.463L57.0337 116.624L56.2624 116.175L57.0551 115.726C57.6122 115.918 58.0621 116.004 58.5977 116.025L59.3047 116.431L54.8055 119.019L55.5768 119.468L54.5484 120.067L51.9131 118.549L52.9415 117.95H52.9201Z" fill="#3973D4"/>
    <path d="M57.912 118.805C59.7974 117.715 61.3614 117.501 62.2613 118.014C63.1612 118.527 62.7755 119.426 60.8901 120.516C59.0047 121.607 57.3978 121.842 56.498 121.329C55.5981 120.816 56.0266 119.896 57.912 118.805ZM59.9688 120.003C61.49 119.126 61.5757 118.784 61.2543 118.592C60.9329 118.399 60.333 118.463 58.8119 119.34C57.3121 120.217 57.1621 120.581 57.4835 120.773C57.8049 120.966 58.4476 120.88 59.9688 120.003Z" fill="#3973D4"/>
    <path d="M61.3615 120.794C63.2469 119.704 64.8109 119.49 65.7108 120.003C66.6106 120.516 66.225 121.415 64.3396 122.505C62.4542 123.596 60.8473 123.831 59.9474 123.318C59.0476 122.805 59.4761 121.885 61.3615 120.794ZM63.4183 121.992C64.9395 121.115 65.0252 120.773 64.7038 120.581C64.3824 120.388 63.7825 120.452 62.2613 121.329C60.7616 122.206 60.6116 122.57 60.933 122.762C61.2544 122.955 61.8971 122.869 63.4183 121.992Z" fill="#3973D4"/>
    <path d="M105.283 148.213L106.183 148.726L109.396 146.887L108.625 146.438L109.418 145.988C109.975 146.181 110.425 146.266 110.96 146.288L111.667 146.694L107.168 149.282L107.94 149.731L106.911 150.33L104.254 148.812L105.304 148.213H105.283Z" fill="#3973D4"/>
    <path d="M110.296 149.09C112.182 147.999 113.746 147.785 114.646 148.298C115.545 148.811 115.16 149.71 113.274 150.801C111.389 151.891 109.782 152.127 108.882 151.613C107.982 151.1 108.411 150.18 110.296 149.09ZM112.353 150.287C113.874 149.41 113.96 149.068 113.639 148.876C113.317 148.683 112.717 148.747 111.196 149.624C109.696 150.501 109.546 150.865 109.868 151.057C110.189 151.25 110.832 151.164 112.353 150.287Z" fill="#3973D4"/>
    <path d="M113.746 151.079C115.631 149.988 117.195 149.774 118.095 150.287C118.995 150.801 118.609 151.699 116.724 152.79C114.838 153.88 113.232 154.116 112.332 153.602C111.432 153.089 111.86 152.169 113.746 151.079ZM115.803 152.276C117.324 151.399 117.409 151.057 117.088 150.865C116.767 150.672 116.167 150.736 114.646 151.613C113.146 152.49 112.996 152.854 113.317 153.046C113.639 153.239 114.281 153.153 115.803 152.276Z" fill="#3973D4"/>
    <path d="M108.111 134.354C100.055 138.995 88.7213 140 82.8079 136.6C76.8946 133.199 78.6301 126.655 86.6859 122.014C94.7417 117.373 106.076 116.367 111.989 119.768C117.902 123.168 116.167 129.713 108.111 134.354Z" fill="#61BCB8"/>
    <path d="M106.783 133.605C99.6267 137.733 89.5783 138.61 84.3292 135.594C79.0801 132.579 80.6227 126.783 87.7786 122.655C94.9346 118.527 104.983 117.651 110.232 120.666C115.481 123.682 113.939 129.478 106.783 133.605Z" fill="#53B7B7"/>
    <path d="M78.5015 115.726C75.095 117.693 69.9315 117.907 66.9749 116.196C64.0182 114.485 64.3824 111.512 67.8104 109.545C71.2385 107.577 76.3805 107.363 79.3371 109.074C82.2938 110.785 81.9296 113.758 78.5015 115.726Z" fill="#3973D4"/>
    <path d="M76.8948 114.785C74.5166 116.153 70.8957 116.303 68.8175 115.127C66.7393 113.929 67.0178 111.855 69.396 110.486C71.7742 109.117 75.395 108.967 77.4732 110.144C79.5515 111.341 79.2729 113.416 76.8948 114.785Z" fill="#2F5BC1"/>
    <path d="M130.629 145.753C127.222 147.721 122.059 147.935 119.102 146.224C116.145 144.513 116.51 141.54 119.938 139.572C123.344 137.605 128.508 137.391 131.464 139.102C134.421 140.813 134.057 143.786 130.629 145.753Z" fill="#3973D4"/>
    <path d="M129.022 144.834C126.644 146.202 123.023 146.352 120.945 145.176C118.866 143.978 119.145 141.904 121.523 140.535C123.901 139.166 127.522 139.016 129.6 140.193C131.679 141.39 131.4 143.465 129.022 144.834Z" fill="#2F5BC1"/>
    <path d="M97.3127 112.261L80.0012 102.295L80.8582 101.803L98.1697 111.769L97.3127 112.261Z" fill="#3973D4"/>
    <path d="M88.8714 108.796L78.7802 102.979L77.9446 103.471L88.0144 109.288L88.8714 108.796Z" fill="#3973D4"/>
    <path d="M69.6958 119.789L59.6046 113.993L58.769 114.464L68.8388 120.281L69.6958 119.789Z" fill="#3973D4"/>
    <path d="M142.841 138.482L125.53 128.515L126.365 128.023L143.677 138.011L142.841 138.482Z" fill="#3973D4"/>
    <path d="M141.62 139.187L131.528 133.391L130.693 133.862L140.763 139.679L141.62 139.187Z" fill="#3973D4"/>
    <path d="M122.444 150.202L112.353 144.384L111.518 144.876L121.587 150.672L122.444 150.202Z" fill="#3973D4"/>
    <path d="M32.759 116.346V125.478L118.181 174.711V165.579L32.759 116.346Z" fill="#ACC2E2"/>
    <path d="M162.338 140.128V149.261L118.181 174.711V165.579L162.338 140.128Z" fill="#D2E1F9"/>
    <path d="M114.41 168.552C111.86 166.798 108.947 165.493 106.183 164.082C103.74 162.82 101.276 161.473 98.6625 160.553C98.5983 160.532 98.5554 160.617 98.6197 160.66C101.212 162.371 104.105 163.654 106.868 165.087C109.311 166.37 111.71 167.803 114.281 168.851C114.453 168.915 114.539 168.659 114.41 168.552Z" fill="#8FADD1"/>
    <path d="M108.989 163.783C102.626 158.521 94.806 154.308 87.4143 150.694C87.3072 150.651 87.2215 150.822 87.3072 150.886C94.4203 155.249 101.426 160.125 108.754 164.146C108.989 164.274 109.204 163.975 108.989 163.804V163.783Z" fill="#8FADD1"/>
    <path d="M55.941 135.509C52.4915 133.071 48.8278 130.996 45.1642 128.9C41.8219 126.997 38.4795 124.944 34.923 123.446C34.7944 123.404 34.7087 123.575 34.8159 123.66C38.1582 125.885 41.8004 127.724 45.2713 129.734C48.7636 131.766 52.1916 133.905 55.7696 135.765C55.941 135.851 56.0909 135.637 55.941 135.53V135.509Z" fill="#8FADD1"/>
    <path d="M77.7516 145.753C75.4591 144.106 72.9738 142.759 70.5527 141.347C68.4316 140.128 66.3534 138.717 64.0609 137.84C63.911 137.776 63.8253 137.99 63.9324 138.075C66.0749 139.85 68.6888 141.134 71.0884 142.545C73.2094 143.786 75.3091 145.09 77.5587 146.138C77.7944 146.245 77.9444 145.882 77.7516 145.753Z" fill="#C5CED3"/>
    <path d="M46.8566 126.975C45.1212 125.799 43.1501 125.008 41.2861 124.067C39.4221 123.104 37.601 122.035 35.6727 121.179C35.587 121.137 35.4585 121.265 35.5656 121.329C38.7151 123.767 42.8501 126.248 46.7066 127.339C46.9423 127.403 47.0494 127.104 46.8566 126.975Z" fill="#8FADD1"/>
    <path d="M138.149 160.489C141.598 158.051 145.262 155.976 148.926 153.88C152.268 151.977 155.61 149.924 159.167 148.427C159.296 148.384 159.381 148.555 159.274 148.64C155.932 150.865 152.29 152.704 148.819 154.714C145.326 156.746 141.898 158.885 138.32 160.746C138.149 160.831 137.999 160.617 138.149 160.51V160.489Z" fill="#ACC2E2"/>
    <path d="M147.212 151.955C148.947 150.779 150.918 149.988 152.782 149.047C154.646 148.084 156.467 147.015 158.396 146.16C158.481 146.117 158.61 146.245 158.503 146.309C155.353 148.747 151.218 151.228 147.362 152.319C147.126 152.383 147.019 152.084 147.212 151.955Z" fill="#ACC2E2"/>
    <path d="M131.721 122.505L87.4786 147.892L64.4895 134.632L108.732 109.245L131.721 122.505Z" fill="#3973D4"/>
    <path d="M129.365 121.137L85.1219 146.523L66.3535 135.701L110.596 110.315L129.365 121.137Z" fill="#FFE375"/>
    <path d="M87.4786 147.892L64.4895 134.632V143.764L87.4786 157.024V147.892Z" fill="#2F5BC1"/>
    <path d="M66.3535 135.701V144.834L85.1219 155.655V146.523L66.3535 135.701Z" fill="#FFA300"/>
    <path d="M91.1423 188.035L113.382 200.846L155.203 124.537L132.985 111.726L91.1423 188.035Z" fill="#E84949"/>
    <path d="M83.6863 181.234L123.173 203.99L89.5782 210L83.6863 181.234Z" fill="#FE645F"/>
    <path d="M88.3999 186.474L110.618 199.285L152.439 122.954L130.222 110.144L88.3999 186.474Z" fill="#FE645F"/>
    <path d="M166.344 120.11L188.562 132.921L218 79.2606L195.761 66.4497L166.344 120.11Z" fill="#E84949"/>
    <path d="M164.78 116.389L187.019 129.199L215.236 77.6779L192.997 64.8671L164.78 116.389Z" fill="#FE645F"/>
    <path d="M81.0725 179.801L120.559 202.557L86.9644 208.588L81.0725 179.801Z" fill="#FE645F"/>
    <path d="M120.559 202.557L123.173 203.99L89.5782 210L86.9644 208.588L120.559 202.557Z" fill="#E84949"/>
    <path d="M130.372 110.293L164.93 116.538L187.148 129.349L152.589 123.104L130.372 110.293Z" fill="#FF7676"/>
    <path d="M152.889 126.483L188.562 132.921L187.148 129.349L152.589 123.104L152.889 126.483Z" fill="#E84949"/>
    <path d="M149.226 180.807C147.983 181.534 146.826 181.855 145.755 181.812C144.683 181.769 143.762 181.32 143.012 180.486C142.241 179.652 141.641 178.433 141.213 176.85C140.784 175.267 140.57 173.321 140.57 170.99C140.57 168.659 140.784 166.477 141.213 164.424C141.641 162.371 142.241 160.51 143.012 158.799C143.784 157.088 144.705 155.613 145.755 154.329C146.826 153.046 147.983 152.041 149.226 151.335C150.468 150.608 151.625 150.287 152.696 150.33C153.768 150.373 154.689 150.822 155.46 151.635C156.232 152.447 156.831 153.645 157.281 155.185C157.731 156.725 157.946 158.671 157.946 161.002C157.946 163.333 157.731 165.536 157.281 167.632C156.831 169.707 157.967 172.38 157.217 174.112C156.446 175.845 155.503 177.299 154.432 178.582C153.361 179.866 150.49 180.144 149.247 180.871L149.226 180.807ZM149.226 174.968C150.125 174.455 150.875 173.364 151.497 171.674C152.118 169.985 152.439 167.482 152.439 164.146C152.439 160.81 152.118 158.692 151.497 157.773C150.875 156.853 150.125 156.639 149.226 157.152C148.326 157.666 147.576 158.756 146.954 160.382C146.333 162.029 146.012 164.51 146.012 167.825C146.012 171.14 146.333 173.3 146.954 174.262C147.576 175.225 148.347 175.46 149.226 174.947V174.968ZM150.404 198.793L169.237 139.807L173.414 142.139L154.582 201.124L150.404 198.793ZM174.957 184.635C173.714 185.362 172.557 185.683 171.486 185.64C170.415 185.597 169.494 185.148 168.722 184.314C167.951 183.48 167.351 182.261 166.923 180.678C166.494 179.096 166.28 177.149 166.28 174.818C166.28 172.487 166.494 170.306 166.923 168.252C167.351 166.199 167.951 164.317 168.722 162.628C169.494 160.938 170.415 159.441 171.486 158.158C172.557 156.874 173.714 155.869 174.957 155.163C176.2 154.436 177.357 154.115 178.428 154.158C179.499 154.201 180.42 154.629 181.192 155.441C181.963 156.254 182.563 157.452 183.013 158.992C183.463 160.532 183.677 162.478 183.677 164.809C183.677 167.14 183.441 169.343 183.013 171.418C182.563 173.514 183.848 175.845 183.077 177.577C182.799 178.219 182.263 179.181 181.942 179.759C181.385 180.742 180.27 181.577 179.606 182.389C178.535 183.672 176.221 183.929 174.957 184.656V184.635ZM174.957 178.796C175.857 178.283 176.607 177.171 177.228 175.481C177.849 173.792 178.171 171.289 178.171 167.974C178.171 164.659 177.849 162.521 177.228 161.601C176.607 160.681 175.835 160.467 174.957 160.981C174.057 161.494 173.307 162.563 172.686 164.21C172.065 165.857 171.743 168.338 171.743 171.653C171.743 174.968 172.065 177.128 172.686 178.09C173.307 179.053 174.079 179.288 174.957 178.775V178.796Z" fill="#E84949"/>
    <path d="M158.738 153.217L154.368 150.779C154.368 150.779 149.761 152.747 147.233 155.784C144.705 158.821 142.755 166.285 142.841 170.092C142.927 173.899 144.448 181.534 144.448 181.534L148.347 183.715C148.347 183.715 147.49 177.235 146.954 174.283C146.44 171.311 146.89 162.136 150.19 158.628C153.511 155.121 158.738 153.217 158.738 153.217Z" fill="#E84949"/>
    <path d="M173.414 142.117L169.237 139.786L173.779 137.177L177.957 139.508L173.414 142.117Z" fill="#FF7676"/>
    <path d="M169.772 185.127L174.293 187.65V181.641C174.293 181.641 172.322 168.466 175.321 164.595C178.321 160.724 184.234 156.896 184.234 156.896L179.842 154.479C179.842 154.479 175.471 157.024 173.414 159.227C171.358 161.43 169.644 168.851 169.558 171.674C169.494 174.497 169.772 185.148 169.772 185.148V185.127Z" fill="#E84949"/>
    <path d="M153.404 183.138C152.161 183.865 151.004 184.186 149.933 184.143C148.861 184.1 147.94 183.651 147.19 182.817C146.419 181.983 145.819 180.764 145.391 179.181C144.962 177.598 144.748 175.652 144.748 173.321C144.748 170.99 144.962 168.808 145.391 166.755C145.819 164.702 146.419 162.841 147.19 161.13C147.962 159.419 148.883 157.944 149.933 156.66C151.004 155.377 152.161 154.372 153.404 153.666C154.646 152.939 155.803 152.618 156.874 152.661C157.946 152.704 158.867 153.153 159.638 153.966C160.41 154.778 161.009 155.976 161.459 157.516C161.909 159.056 162.124 161.002 162.124 163.333C162.124 165.664 161.909 167.867 161.459 169.963C161.009 172.038 160.41 173.941 159.638 175.674C158.867 177.406 157.946 178.903 156.874 180.186C155.803 181.47 154.646 182.475 153.404 183.181V183.138ZM153.404 177.299C154.303 176.786 155.053 175.695 155.675 174.005C156.296 172.316 156.617 169.814 156.617 166.477C156.617 163.141 156.296 161.023 155.675 160.104C155.053 159.184 154.303 158.97 153.404 159.484C152.504 159.997 151.754 161.088 151.132 162.713C150.511 164.36 150.19 166.841 150.19 170.156C150.19 173.471 150.511 175.631 151.132 176.593C151.754 177.556 152.525 177.791 153.404 177.278V177.299ZM154.582 201.124L173.415 142.139L177.957 139.529L159.124 198.515L154.582 201.146V201.124ZM179.135 186.966C177.892 187.693 176.735 188.014 175.664 187.971C174.593 187.928 173.672 187.479 172.9 186.645C172.129 185.811 171.529 184.592 171.101 183.009C170.672 181.427 170.458 179.481 170.458 177.149C170.458 174.818 170.672 172.637 171.101 170.584C171.529 168.53 172.129 166.648 172.9 164.959C173.672 163.269 174.593 161.772 175.664 160.489C176.735 159.206 177.892 158.2 179.135 157.495C180.378 156.767 181.535 156.447 182.606 156.489C183.677 156.532 184.598 156.96 185.37 157.773C186.141 158.585 186.741 159.783 187.191 161.323C187.641 162.863 187.855 164.809 187.855 167.14C187.855 169.471 187.619 171.674 187.191 173.749C186.741 175.845 186.141 177.748 185.37 179.459C184.598 181.17 183.677 182.689 182.606 183.972C181.535 185.255 180.378 186.26 179.135 186.966ZM179.135 181.127C180.035 180.614 180.785 179.502 181.406 177.812C182.027 176.123 182.349 173.62 182.349 170.305C182.349 166.99 182.027 164.852 181.406 163.932C180.785 163.012 180.013 162.799 179.135 163.312C178.235 163.825 177.485 164.895 176.864 166.541C176.243 168.188 175.921 170.669 175.921 173.984C175.921 177.299 176.243 179.459 176.864 180.422C177.485 181.384 178.257 181.619 179.135 181.106V181.127Z" fill="#FE645F"/>
    <path d="M91.1635 50.5377C89.9423 51.2434 88.7854 51.5856 87.7355 51.5215C86.6857 51.4787 85.7858 51.0296 85.0145 50.1955C84.2647 49.3614 83.6648 48.1851 83.2363 46.6238C82.8078 45.0626 82.5935 43.1377 82.5935 40.8279C82.5935 38.5181 82.8078 36.3794 83.2363 34.3476C83.6648 32.3372 84.2432 30.4766 85.0145 28.787C85.7644 27.0974 86.6857 25.6431 87.7355 24.3812C88.7854 23.1194 89.9423 22.1356 91.1635 21.4298C92.4062 20.724 93.5417 20.3819 94.5915 20.4246C95.6414 20.4674 96.5412 20.8951 97.3125 21.7079C98.0624 22.5206 98.6623 23.6755 99.1122 25.2153C99.5622 26.7338 99.7764 28.6587 99.7764 30.9471C99.7764 33.2355 99.5622 35.417 99.1122 37.4701C98.6623 39.5233 99.7978 42.1753 99.048 43.8649C98.2981 45.5759 97.3554 47.0088 96.3055 48.2706C95.2557 49.5325 92.4062 49.8105 91.185 50.5163L91.1635 50.5377ZM91.1635 44.7631C92.042 44.2499 92.7918 43.1805 93.4132 41.5123C94.0345 39.8441 94.3344 37.3632 94.3344 34.091C94.3344 30.8188 94.0345 28.7228 93.4132 27.8032C92.8133 26.8835 92.0634 26.691 91.1635 27.2043C90.2851 27.7176 89.5352 28.787 88.9139 30.391C88.2926 32.0164 87.9926 34.4546 87.9926 37.7482C87.9926 41.0418 88.2926 43.1591 88.9139 44.1002C89.5352 45.0626 90.2851 45.2764 91.1635 44.7631ZM92.3205 68.2676L110.917 10.0519L115.031 12.3403L96.4341 70.556L92.3205 68.2676ZM116.552 54.3018C115.331 55.0076 114.174 55.3498 113.124 55.307C112.074 55.2642 111.175 54.8151 110.403 54.0024C109.653 53.1683 109.053 51.9706 108.625 50.4093C108.218 48.8481 108.004 46.9233 108.004 44.6348C108.004 42.3464 108.218 40.1863 108.625 38.1545C109.053 36.1228 109.632 34.2835 110.403 32.5939C111.153 30.9257 112.074 29.45 113.124 28.1881C114.195 26.9263 115.331 25.9425 116.552 25.2153C117.773 24.5096 118.93 24.1674 119.98 24.2315C121.03 24.2743 121.93 24.702 122.701 25.5148C123.451 26.3275 124.051 27.4824 124.501 29.0222C124.929 30.5407 125.165 32.4656 125.165 34.754C125.165 37.0424 124.951 39.2239 124.501 41.2771C124.051 43.3302 125.315 45.64 124.565 47.351C124.287 47.9712 123.772 48.9336 123.451 49.5111C122.915 50.4735 121.801 51.3076 121.137 52.1203C120.087 53.3822 117.795 53.6388 116.552 54.3446V54.3018ZM116.552 48.5487C117.431 48.0354 118.181 46.9446 118.802 45.2764C119.423 43.6082 119.723 41.1273 119.723 37.8551C119.723 34.5829 119.402 32.487 118.802 31.5673C118.181 30.6477 117.431 30.4552 116.552 30.9685C115.674 31.4818 114.924 32.5297 114.303 34.1551C113.703 35.7806 113.381 38.2187 113.381 41.5123C113.381 44.8059 113.703 46.9019 114.303 47.8643C114.924 48.8267 115.674 49.0406 116.552 48.5487Z" fill="#2F5BC1"/>
    <path d="M100.548 23.312L96.2413 20.9166C96.2413 20.9166 91.6992 22.8415 89.1924 25.857C86.6857 28.8512 84.7789 36.2298 84.8431 39.9725C84.9074 43.7367 86.4286 51.2649 86.4286 51.2649L90.2637 53.425C90.2637 53.425 89.4067 47.0303 88.8925 44.1216C88.3783 41.1916 88.8282 32.1235 92.0848 28.6588C95.3628 25.194 100.526 23.312 100.526 23.312H100.548Z" fill="#2F5BC1"/>
    <path d="M115.031 12.3617L110.917 10.0733L115.395 7.48547L119.53 9.77389L115.031 12.3617Z" fill="#4F8EE8"/>
    <path d="M111.432 54.8151L115.888 57.296V51.3718C115.888 51.3718 113.938 38.3684 116.895 34.5401C119.852 30.7119 125.679 26.9477 125.679 26.9477L121.351 24.5524C121.351 24.5524 117.045 27.076 115.01 29.2361C112.974 31.3962 111.282 38.732 111.196 41.5123C111.132 44.2927 111.41 54.8151 111.41 54.8151H111.432Z" fill="#2F5BC1"/>
    <path d="M95.2771 52.8262C94.0558 53.532 92.8989 53.8742 91.849 53.81C90.7992 53.7672 89.8994 53.3181 89.1281 52.484C88.3782 51.6499 87.7783 50.4736 87.3498 48.9124C86.9213 47.3511 86.707 45.4263 86.707 43.1164C86.707 40.8066 86.9213 38.6679 87.3498 36.6362C87.7783 34.6258 88.3568 32.7651 89.1281 31.0755C89.8779 29.3859 90.7992 27.9316 91.849 26.6698C92.8989 25.4079 94.0558 24.4241 95.2771 23.7183C96.5197 23.0126 97.6552 22.6704 98.7051 22.7131C99.7549 22.7559 100.655 23.1837 101.426 23.9964C102.176 24.8091 102.776 25.964 103.226 27.5039C103.676 29.0223 103.89 30.9472 103.89 33.2356C103.89 35.524 103.676 37.7055 103.226 39.7587C102.776 41.8118 102.197 43.6939 101.426 45.3835C100.676 47.0944 99.7549 48.5702 98.7051 49.832C97.6552 51.0938 96.4983 52.0776 95.2771 52.8048V52.8262ZM95.2771 47.0517C96.1555 46.5384 96.9054 45.469 97.5267 43.8008C98.148 42.1326 98.448 39.6517 98.448 36.3795C98.448 33.1073 98.148 31.0113 97.5267 30.0917C96.9268 29.1721 96.1769 28.9796 95.2771 29.4929C94.3986 30.0062 93.6487 31.0755 93.0274 32.6795C92.4061 34.305 92.1061 36.7431 92.1061 40.0367C92.1061 43.3303 92.4061 45.4476 93.0274 46.3887C93.6487 47.3511 94.3986 47.565 95.2771 47.0731V47.0517ZM96.434 70.5561L115.031 12.3404L119.509 9.75256L100.912 67.9683L96.4126 70.5561H96.434ZM120.666 56.5903C119.445 57.2961 118.288 57.6383 117.238 57.5955C116.188 57.5527 115.288 57.1036 114.517 56.2909C113.767 55.4568 113.167 54.2591 112.738 52.6979C112.331 51.1366 112.117 49.2118 112.117 46.9234C112.117 44.6349 112.331 42.4748 112.738 40.4431C113.167 38.4113 113.745 36.572 114.517 34.8824C115.267 33.2142 116.188 31.7385 117.238 30.4767C118.309 29.2148 119.445 28.231 120.666 27.5039C121.887 26.7981 123.044 26.4559 124.094 26.5201C125.144 26.5628 126.043 26.9906 126.815 27.8033C127.565 28.616 128.165 29.7709 128.614 31.3108C129.043 32.8293 129.279 34.7541 129.279 37.0425C129.279 39.3309 129.064 41.5124 128.614 43.5656C128.165 45.6187 127.565 47.5008 126.815 49.2118C126.065 50.9014 125.144 52.3985 124.094 53.6603C123.044 54.9221 121.887 55.9059 120.666 56.6117V56.5903ZM120.666 50.8372C121.544 50.3239 122.294 49.2332 122.915 47.565C123.537 45.8968 123.837 43.4159 123.837 40.1436C123.837 36.8714 123.515 34.7755 122.915 33.8558C122.294 32.9362 121.544 32.7437 120.666 33.257C119.787 33.7703 119.037 34.8183 118.416 36.4437C117.816 38.0691 117.495 40.5072 117.495 43.8008C117.495 47.0944 117.816 49.1904 118.416 50.1528C119.037 51.1152 119.787 51.3291 120.666 50.8372Z" fill="#3973D4"/>
    <path d="M95.8984 121.821V136.321C96.6269 136.279 97.3339 136.214 98.0409 136.108V121.821H95.8984Z" fill="#FFB83B"/>
    <path d="M92.9634 121.821V136.343C93.3705 136.343 93.799 136.386 94.206 136.386C94.3989 136.386 94.6131 136.386 94.8059 136.386V121.842H92.9634V121.821Z" fill="#FFB83B"/>
    <path d="M76.7874 121.821V125.949C76.7874 127.339 77.2587 128.665 78.0729 129.884V121.821H76.7874Z" fill="#FFB83B"/>
    <path d="M99.1338 121.821V135.958C99.8622 135.829 100.569 135.68 101.276 135.487V121.821H99.1338Z" fill="#FFB83B"/>
    <path d="M102.369 121.821V135.166C102.905 134.995 103.44 134.803 103.933 134.61V121.821H102.369Z" fill="#FFB83B"/>
    <path d="M81.8438 121.821V133.284C82.3365 133.584 82.8722 133.862 83.4078 134.119V121.821H81.8438Z" fill="#FFB83B"/>
    <path d="M90.0281 121.821V136.065C90.628 136.15 91.2493 136.214 91.8706 136.279V121.821H90.0281Z" fill="#FFB83B"/>
    <path d="M84.5005 121.821V134.61C85.0147 134.803 85.5289 134.995 86.0645 135.166V121.821H84.5005Z" fill="#FFB83B"/>
    <path d="M87.1785 121.821V135.487C87.7569 135.637 88.3354 135.787 88.9568 135.894V121.821H87.1785Z" fill="#FFB83B"/>
    <path d="M79.187 121.821V131.188C79.6584 131.659 80.1726 132.13 80.751 132.557V121.821H79.187Z" fill="#FFB83B"/>
    <path d="M111.646 121.821H110.36V129.884C111.196 128.665 111.646 127.339 111.646 125.949V121.821Z" fill="#FFB83B"/>
    <path d="M107.682 121.821V132.557C108.261 132.13 108.775 131.68 109.246 131.188V121.821H107.682Z" fill="#FFB83B"/>
    <path d="M105.026 121.821V134.119C105.583 133.862 106.097 133.584 106.59 133.284V121.821H105.026Z" fill="#FFB83B"/>
    <path d="M78.0942 121.821V129.884C78.4156 130.333 78.7798 130.782 79.1869 131.21V121.842H78.0942V121.821Z" fill="#FF9D27"/>
    <path d="M80.751 121.821V132.557C81.0938 132.814 81.458 133.049 81.8437 133.284V121.821H80.751Z" fill="#FF9D27"/>
    <path d="M83.4077 121.821V134.119C83.7719 134.29 84.1147 134.461 84.5004 134.61V121.821H83.4077Z" fill="#FF9D27"/>
    <path d="M86.0859 121.821V135.166C86.4502 135.273 86.8144 135.38 87.1786 135.487V121.821H86.0859Z" fill="#FF9D27"/>
    <path d="M88.9353 121.821V135.894C89.2995 135.958 89.6638 136.022 90.028 136.065V121.821H88.9353Z" fill="#FF9D27"/>
    <path d="M91.8706 121.821V136.279C92.2348 136.3 92.5991 136.321 92.9633 136.343V121.821H91.8706Z" fill="#FF9D27"/>
    <path d="M94.8059 121.821V136.364C95.1701 136.364 95.5344 136.364 95.8986 136.321V121.821H94.8059Z" fill="#FF9D27"/>
    <path d="M98.041 121.821V136.108C98.4052 136.065 98.7695 136.001 99.1337 135.936V121.8H98.041V121.821Z" fill="#FF9D27"/>
    <path d="M109.246 121.821V131.188C109.653 130.761 110.018 130.333 110.339 129.863V121.8H109.246V121.821Z" fill="#FF9D27"/>
    <path d="M106.59 121.821V133.284C106.975 133.049 107.339 132.814 107.682 132.557V121.821H106.59Z" fill="#FF9D27"/>
    <path d="M103.933 121.821V134.61C104.319 134.461 104.661 134.29 105.026 134.119V121.821H103.933Z" fill="#FF9D27"/>
    <path d="M101.276 121.821V135.487C101.64 135.38 102.005 135.295 102.369 135.166V121.821H101.276Z" fill="#FF9D27"/>
    <path d="M94.2274 132.258C103.847 132.258 111.646 127.585 111.646 121.821C111.646 116.057 103.847 111.384 94.2274 111.384C84.6074 111.384 76.8088 116.057 76.8088 121.821C76.8088 127.585 84.6074 132.258 94.2274 132.258Z" fill="#FFE375"/>
    <path d="M94.2272 113.48C102.326 113.48 108.925 117.265 109.375 122.056C109.375 121.885 109.418 121.714 109.418 121.522C109.418 116.496 102.604 112.432 94.2272 112.432C85.85 112.432 79.0369 116.496 79.0369 121.522C79.0369 121.693 79.0583 121.864 79.0797 122.056C79.5296 117.287 86.1286 113.48 94.2272 113.48Z" fill="#FF9D27"/>
    <path opacity="0.5" d="M94.2274 130.632C102.326 130.632 108.925 126.847 109.375 122.056C108.925 117.287 102.326 113.48 94.2274 113.48C86.1287 113.48 79.5298 117.265 79.0798 122.056C79.5298 126.826 86.1287 130.632 94.2274 130.632Z" fill="#FF9D27"/>
    <path d="M92.7919 117.116C92.5348 116.453 92.3634 115.747 92.0634 115.063C91.8492 114.571 90.7137 114.72 90.8422 115.234C90.9708 115.854 91.2493 116.474 91.4421 117.073C91.892 118.378 92.2563 119.49 92.8776 120.794C89.5353 120.538 86.3001 120.302 82.9364 120.153C82.0794 120.11 81.9722 121.115 82.8292 121.201C86.343 121.543 89.8995 121.714 93.4989 122.056C95.92 123.532 99.4551 125.35 102.198 126.825C102.797 127.146 103.869 126.569 103.269 126.227C101.576 125.286 94.5487 121.265 94.5273 121.243C93.8846 119.96 93.2847 118.42 92.7705 117.116H92.7919Z" fill="#FF9D27"/>
    <path d="M100.912 118.57C98.9838 119.704 93.0705 122.912 89.4282 125.264C88.5927 125.799 89.5996 126.291 90.4138 125.82C93.1562 124.216 98.3625 121.415 101.833 119.105C102.24 118.848 101.362 118.313 100.933 118.57H100.912Z" fill="#FF9D27"/>
    <path d="M103.44 120.26C101.512 121.393 95.5986 124.601 91.9563 126.954C91.1207 127.489 92.1277 127.98 92.9419 127.51C95.6843 125.927 100.891 123.104 104.361 120.794C104.769 120.538 103.89 120.003 103.462 120.26H103.44Z" fill="#FF9D27"/>
    <path d="M39.0579 174.797V189.297C39.7863 189.254 40.4933 189.19 41.2004 189.083V174.797H39.0579Z" fill="#FFB83B"/>
    <path d="M36.1228 174.797V189.319C36.5299 189.319 36.9584 189.361 37.3655 189.361C37.5583 189.361 37.7725 189.361 37.9654 189.361V174.818H36.1228V174.797Z" fill="#FFB83B"/>
    <path d="M19.9468 174.797V178.924C19.9468 180.315 20.4181 181.641 21.2323 182.86V174.797H19.9468Z" fill="#FFB83B"/>
    <path d="M42.2932 174.797V188.934C43.0217 188.805 43.7287 188.656 44.4357 188.463V174.797H42.2932Z" fill="#FFB83B"/>
    <path d="M45.5283 174.797V188.142C46.0639 187.971 46.5996 187.779 47.0923 187.586V174.797H45.5283Z" fill="#FFB83B"/>
    <path d="M25.0032 174.797V186.26C25.496 186.56 26.0316 186.838 26.5672 187.094V174.797H25.0032Z" fill="#FFB83B"/>
    <path d="M33.1875 174.797V189.041C33.7874 189.126 34.4087 189.19 35.0301 189.254V174.797H33.1875Z" fill="#FFB83B"/>
    <path d="M27.6599 174.797V187.586C28.1741 187.8 28.6883 187.971 29.2239 188.142V174.797H27.6599Z" fill="#FFB83B"/>
    <path d="M30.3379 174.797V188.463C30.9164 188.613 31.4948 188.763 32.1162 188.869V174.797H30.3379Z" fill="#FFB83B"/>
    <path d="M22.3464 174.797V184.164C22.8178 184.635 23.332 185.105 23.9105 185.533V174.797H22.3464Z" fill="#FFB83B"/>
    <path d="M54.8053 174.797H53.5198V182.86C54.3554 181.641 54.8053 180.315 54.8053 178.924V174.797Z" fill="#FFB83B"/>
    <path d="M50.8418 174.797V185.533C51.4203 185.105 51.9345 184.656 52.4058 184.164V174.797H50.8418Z" fill="#FFB83B"/>
    <path d="M48.1851 174.797V187.094C48.7421 186.838 49.2563 186.56 49.7491 186.26V174.797H48.1851Z" fill="#FFB83B"/>
    <path d="M21.2537 174.797V182.86C21.575 183.309 21.9393 183.758 22.3463 184.186V174.818H21.2537V174.797Z" fill="#FF9D27"/>
    <path d="M23.9104 174.797V185.533C24.2532 185.79 24.6174 186.025 25.0031 186.26V174.797H23.9104Z" fill="#FF9D27"/>
    <path d="M26.5671 174.797V187.094C26.9314 187.265 27.2742 187.437 27.6598 187.586V174.797H26.5671Z" fill="#FF9D27"/>
    <path d="M29.2454 174.797V188.142C29.6096 188.249 29.9738 188.356 30.338 188.463V174.797H29.2454Z" fill="#FF9D27"/>
    <path d="M32.0947 174.797V188.869C32.459 188.934 32.8232 188.998 33.1874 189.041V174.797H32.0947Z" fill="#FF9D27"/>
    <path d="M35.03 174.797V189.254C35.3943 189.276 35.7585 189.297 36.1227 189.319V174.797H35.03Z" fill="#FF9D27"/>
    <path d="M37.9653 174.797V189.34C38.3296 189.34 38.6938 189.34 39.058 189.297V174.797H37.9653Z" fill="#FF9D27"/>
    <path d="M41.2004 174.797V189.083C41.5647 189.041 41.9289 188.976 42.2931 188.912V174.775H41.2004V174.797Z" fill="#FF9D27"/>
    <path d="M52.4058 174.797V184.164C52.8128 183.737 53.1771 183.309 53.4984 182.838V174.775H52.4058V174.797Z" fill="#FF9D27"/>
    <path d="M49.749 174.797V186.26C50.1347 186.025 50.4989 185.79 50.8417 185.533V174.797H49.749Z" fill="#FF9D27"/>
    <path d="M47.0923 174.797V187.586C47.4779 187.437 47.8207 187.265 48.185 187.094V174.797H47.0923Z" fill="#FF9D27"/>
    <path d="M44.4355 174.797V188.463C44.7998 188.356 45.164 188.271 45.5282 188.142V174.797H44.4355Z" fill="#FF9D27"/>
    <path d="M37.3868 164.36C27.767 164.36 19.9683 169.022 19.9683 174.797C19.9683 180.571 27.767 185.234 37.3868 185.234C47.0067 185.234 54.8054 180.571 54.8054 174.797C54.8054 169.022 47.0067 164.36 37.3868 164.36Z" fill="#FFE375"/>
    <path d="M37.3867 166.456C45.4853 166.456 52.0843 170.241 52.5342 175.032C52.5342 174.861 52.577 174.69 52.577 174.497C52.577 169.471 45.7639 165.408 37.3867 165.408C29.0095 165.408 22.1963 169.471 22.1963 174.497C22.1963 174.668 22.2177 174.84 22.2391 175.032C22.6891 170.263 29.288 166.456 37.3867 166.456Z" fill="#FF9D27"/>
    <path opacity="0.5" d="M37.3868 183.587C45.4855 183.587 52.0844 179.801 52.5343 175.011C52.0844 170.241 45.4855 166.434 37.3868 166.434C29.2881 166.434 22.6892 170.22 22.2393 175.011C22.6892 179.78 29.2881 183.587 37.3868 183.587Z" fill="#FF9D27"/>
    <path d="M47.1565 179.951C46.6423 179.331 46.0424 178.775 45.4211 178.24C46.021 177.32 46.1924 176.208 45.7211 175.032C44.9283 172.957 42.3787 172.765 40.4933 172.957C39.5935 173.043 38.7365 173.278 37.9009 173.535C36.1012 172.53 34.3443 171.268 32.4804 170.348C33.723 169.814 35.2013 169.792 36.2083 169.749C36.4869 169.749 36.5511 169.343 36.2726 169.257C34.8157 168.808 32.866 168.937 31.302 169.792C30.5093 169.471 29.6951 169.236 28.8381 169.129C28.7096 169.129 28.6881 169.3 28.7738 169.343C29.3309 169.664 29.9094 170.006 30.4664 170.327C28.9667 171.589 28.3025 173.578 30.5521 175.118C32.6946 176.593 35.3085 175.609 37.4724 174.925C37.6652 174.861 37.8581 174.797 38.0509 174.733C39.8934 175.781 41.6074 177.128 43.3857 178.347C42.5287 178.967 41.2861 179.395 40.3219 179.566C38.865 179.823 37.6438 179.823 36.1869 179.48C35.9084 179.416 35.6727 179.759 35.9084 179.972C37.5367 181.555 41.5432 181.127 43.9642 179.566C44.1785 179.416 44.3713 179.288 44.5641 179.117C45.2926 179.566 46.021 179.994 46.7923 180.336C47.0708 180.464 47.3279 180.143 47.1351 179.908L47.1565 179.951ZM32.4589 174.561C30.3807 174.198 29.9094 172.508 31.2163 171.182C31.302 171.097 31.4091 171.033 31.4948 170.947C33.2088 171.952 34.9014 172.957 36.6368 173.941C36.3583 174.027 36.1012 174.134 35.8227 174.219C35.4584 174.369 33.1231 174.69 32.4589 174.583V174.561ZM40.9647 174.155C42.4644 174.091 45.4425 174.241 44.2856 177.32C42.7644 176.208 41.1147 175.246 39.4649 174.369C39.9577 174.262 40.4505 174.176 40.9433 174.155H40.9647Z" fill="#FF9D27"/>
    <path d="M50.4561 169.343V183.844C51.1845 183.801 51.8915 183.737 52.5986 183.63V169.343H50.4561Z" fill="#FFB83B"/>
    <path d="M47.521 169.343V183.865C47.9281 183.865 48.3566 183.908 48.7636 183.908C48.9565 183.908 49.1707 183.908 49.3636 183.908V169.365H47.521V169.343Z" fill="#FFB83B"/>
    <path d="M31.345 169.343V173.471C31.345 174.861 31.8163 176.187 32.6305 177.406V169.343H31.345Z" fill="#FFB83B"/>
    <path d="M53.6699 169.343V183.48C54.3984 183.352 55.1054 183.202 55.8124 183.009V169.343H53.6699Z" fill="#FFB83B"/>
    <path d="M56.905 169.343V182.689C57.4407 182.518 57.9763 182.325 58.4691 182.133V169.343H56.905Z" fill="#FFB83B"/>
    <path d="M36.3799 169.343V180.807C36.8727 181.106 37.4083 181.384 37.9439 181.641V169.343H36.3799Z" fill="#FFB83B"/>
    <path d="M44.5857 169.343V183.587C45.1856 183.672 45.8069 183.737 46.4282 183.801V169.343H44.5857Z" fill="#FFB83B"/>
    <path d="M39.0581 169.343V182.133C39.5723 182.325 40.0865 182.518 40.6221 182.689V169.343H39.0581Z" fill="#FFB83B"/>
    <path d="M41.7146 169.343V183.009C42.2931 183.159 42.8716 183.309 43.4929 183.416V169.343H41.7146Z" fill="#FFB83B"/>
    <path d="M33.7231 169.343V178.711C34.1945 179.181 34.7087 179.652 35.2872 180.079V169.343H33.7231Z" fill="#FFB83B"/>
    <path d="M66.1822 169.343H64.8967V177.406C65.7323 176.187 66.1822 174.861 66.1822 173.471V169.343Z" fill="#FFB83B"/>
    <path d="M62.2185 169.343V180.079C62.797 179.652 63.3112 179.203 63.7825 178.711V169.343H62.2185Z" fill="#FFB83B"/>
    <path d="M59.5618 169.343V181.641C60.1188 181.384 60.633 181.106 61.1258 180.807V169.343H59.5618Z" fill="#FFB83B"/>
    <path d="M32.6304 169.343V177.406C32.9517 177.855 33.316 178.304 33.723 178.732V169.365H32.6304V169.343Z" fill="#FF9D27"/>
    <path d="M35.2871 169.343V180.079C35.6299 180.336 35.9941 180.571 36.3798 180.807V169.343H35.2871Z" fill="#FF9D27"/>
    <path d="M37.9653 169.343V181.641C38.3296 181.812 38.6724 181.983 39.058 182.133V169.343H37.9653Z" fill="#FF9D27"/>
    <path d="M40.6221 169.343V182.689C40.9863 182.796 41.3505 182.903 41.7147 183.009V169.343H40.6221Z" fill="#FF9D27"/>
    <path d="M43.4929 169.343V183.416C43.8571 183.48 44.2214 183.544 44.5856 183.587V169.343H43.4929Z" fill="#FF9D27"/>
    <path d="M46.4282 169.343V183.801C46.7924 183.822 47.1567 183.844 47.5209 183.865V169.343H46.4282Z" fill="#FF9D27"/>
    <path d="M49.3635 169.343V183.886C49.7278 183.886 50.092 183.886 50.4562 183.844V169.343H49.3635Z" fill="#FF9D27"/>
    <path d="M52.5771 169.343V183.63C52.9414 183.587 53.3056 183.523 53.6698 183.459V169.322H52.5771V169.343Z" fill="#FF9D27"/>
    <path d="M63.804 169.343V178.711C64.211 178.283 64.5753 177.855 64.8966 177.385V169.322H63.804V169.343Z" fill="#FF9D27"/>
    <path d="M61.1257 169.343V180.807C61.5114 180.571 61.8756 180.336 62.2184 180.079V169.343H61.1257Z" fill="#FF9D27"/>
    <path d="M58.469 169.343V182.133C58.8546 181.983 59.1974 181.812 59.5617 181.641V169.343H58.469Z" fill="#FF9D27"/>
    <path d="M55.8125 169.343V183.009C56.1767 182.903 56.541 182.817 56.9052 182.689V169.343H55.8125Z" fill="#FF9D27"/>
    <path d="M48.7635 158.906C39.1437 158.906 31.345 163.569 31.345 169.343C31.345 175.118 39.1437 179.78 48.7635 179.78C58.3834 179.78 66.1821 175.118 66.1821 169.343C66.1821 163.569 58.3834 158.906 48.7635 158.906Z" fill="#FFE375"/>
    <path d="M48.7636 161.002C56.8623 161.002 63.4612 164.788 63.9111 169.578C63.9111 169.407 63.954 169.236 63.954 169.044C63.954 164.018 57.1622 159.954 48.7636 159.954C40.365 159.954 33.5732 164.018 33.5732 169.044C33.5732 169.215 33.5947 169.386 33.6161 169.578C34.066 164.809 40.6649 161.002 48.7636 161.002Z" fill="#FF9D27"/>
    <path opacity="0.5" d="M48.7637 178.133C56.8624 178.133 63.4613 174.348 63.9112 169.557C63.4613 164.788 56.8624 160.981 48.7637 160.981C40.6651 160.981 34.0661 164.766 33.6162 169.557C34.0661 174.326 40.6651 178.133 48.7637 178.133Z" fill="#FF9D27"/>
    <path d="M58.5335 174.497C58.0193 173.877 57.4194 173.321 56.7981 172.786C57.398 171.867 57.5694 170.755 57.098 169.578C56.3053 167.504 53.7557 167.311 51.8703 167.504C50.9704 167.589 50.1134 167.825 49.2779 168.081C47.4782 167.076 45.7213 165.814 43.8573 164.895C45.1 164.36 46.5783 164.339 47.5853 164.296C47.8638 164.296 47.9281 163.889 47.6496 163.804C46.1927 163.355 44.243 163.483 42.6789 164.339C41.8862 164.018 41.0721 163.782 40.2151 163.676C40.0865 163.676 40.0651 163.847 40.1508 163.889C40.7078 164.21 41.2863 164.552 41.8434 164.873C40.3436 166.135 39.6794 168.124 41.9291 169.664C44.0716 171.14 46.6854 170.156 48.8494 169.471C49.0422 169.407 49.235 169.343 49.4278 169.279C51.2704 170.327 52.9844 171.674 54.7627 172.893C53.9057 173.514 52.663 173.941 51.6989 174.112C50.242 174.369 49.0208 174.369 47.5639 174.027C47.2853 173.963 47.0497 174.305 47.2853 174.519C48.9136 176.101 52.9201 175.674 55.3412 174.112C55.5554 173.963 55.7482 173.813 55.9411 173.663C56.6695 174.112 57.398 174.54 58.1693 174.882C58.4478 175.011 58.7049 174.69 58.5121 174.455L58.5335 174.497ZM43.8359 169.108C41.7577 168.744 41.2863 167.055 42.5932 165.729C42.6789 165.643 42.7861 165.579 42.8718 165.493C44.5858 166.499 46.2784 167.504 48.0138 168.488C47.7353 168.573 47.4782 168.68 47.1996 168.766C46.8354 168.915 44.5001 169.236 43.8359 169.129V169.108ZM52.3416 168.701C53.8414 168.637 56.8195 168.787 55.6625 171.867C54.1413 170.755 52.4916 169.792 50.8419 168.915C51.3347 168.808 51.8274 168.723 52.3202 168.701H52.3416Z" fill="#FF9D27"/>
    <path d="M59.4331 108.433V122.933C60.1616 122.89 60.8686 122.826 61.5756 122.719V108.433H59.4331Z" fill="#FFB83B"/>
    <path d="M56.498 108.433V122.954C56.9051 122.954 57.3336 122.997 57.7407 122.997C57.9335 122.997 58.1478 122.997 58.3406 122.997V108.454H56.498V108.433Z" fill="#FFB83B"/>
    <path d="M40.322 108.433V112.56C40.322 113.95 40.7934 115.276 41.6075 116.496V108.433H40.322Z" fill="#FFB83B"/>
    <path d="M62.6685 108.433V122.569C63.3969 122.441 64.1039 122.291 64.811 122.099V108.433H62.6685Z" fill="#FFB83B"/>
    <path d="M65.8821 108.433V121.778C66.4177 121.607 66.9533 121.415 67.4461 121.222V108.433H65.8821Z" fill="#FFB83B"/>
    <path d="M45.3784 108.433V119.896C45.8712 120.196 46.4068 120.474 46.9424 120.73V108.433H45.3784Z" fill="#FFB83B"/>
    <path d="M53.5627 108.433V122.676C54.1626 122.762 54.784 122.826 55.4053 122.89V108.433H53.5627Z" fill="#FFB83B"/>
    <path d="M48.0352 108.433V121.222C48.5494 121.415 49.0636 121.607 49.5992 121.778V108.433H48.0352Z" fill="#FFB83B"/>
    <path d="M50.6917 108.433V122.099C51.2701 122.249 51.8486 122.398 52.4699 122.505V108.433H50.6917Z" fill="#FFB83B"/>
    <path d="M42.7002 108.433V117.8C43.1715 118.271 43.6857 118.741 44.2642 119.169V108.433H42.7002Z" fill="#FFB83B"/>
    <path d="M75.1593 108.433H73.8738V116.496C74.7094 115.276 75.1593 113.95 75.1593 112.56V108.433Z" fill="#FFB83B"/>
    <path d="M71.217 108.433V119.169C71.7955 118.741 72.3097 118.292 72.7811 117.8V108.433H71.217Z" fill="#FFB83B"/>
    <path d="M68.5388 108.433V120.73C69.0959 120.474 69.6101 120.196 70.1029 119.896V108.433H68.5388Z" fill="#FFB83B"/>
    <path d="M41.6074 108.433V116.496C41.9288 116.945 42.293 117.394 42.7001 117.822V108.454H41.6074V108.433Z" fill="#FF9D27"/>
    <path d="M44.2856 108.433V119.169C44.6284 119.426 44.9927 119.661 45.3783 119.896V108.433H44.2856Z" fill="#FF9D27"/>
    <path d="M46.9424 108.433V120.73C47.3066 120.901 47.6494 121.072 48.0351 121.222V108.433H46.9424Z" fill="#FF9D27"/>
    <path d="M49.5991 108.433V121.778C49.9633 121.885 50.3276 121.992 50.6918 122.099V108.433H49.5991Z" fill="#FF9D27"/>
    <path d="M52.47 108.433V122.505C52.8342 122.569 53.1984 122.634 53.5626 122.676V108.433H52.47Z" fill="#FF9D27"/>
    <path d="M55.4053 108.433V122.89C55.7695 122.912 56.1337 122.933 56.498 122.954V108.433H55.4053Z" fill="#FF9D27"/>
    <path d="M58.3406 108.433V122.976C58.7048 122.976 59.069 122.976 59.4333 122.933V108.433H58.3406Z" fill="#FF9D27"/>
    <path d="M61.5757 108.433V122.719C61.9399 122.676 62.3041 122.612 62.6684 122.548V108.411H61.5757V108.433Z" fill="#FF9D27"/>
    <path d="M72.781 108.433V117.8C73.1881 117.372 73.5523 116.945 73.8737 116.474V108.411H72.781V108.433Z" fill="#FF9D27"/>
    <path d="M70.1243 108.433V119.896C70.5099 119.661 70.8741 119.426 71.217 119.169V108.433H70.1243Z" fill="#FF9D27"/>
    <path d="M67.446 108.433V121.222C67.8317 121.072 68.1745 120.901 68.5387 120.73V108.433H67.446Z" fill="#FF9D27"/>
    <path d="M64.7896 108.433V122.099C65.1538 121.992 65.518 121.906 65.8822 121.778V108.433H64.7896Z" fill="#FF9D27"/>
    <path d="M57.7406 98.0171C48.1207 98.0171 40.322 102.679 40.322 108.454C40.322 114.229 48.1207 118.891 57.7406 118.891C67.3605 118.891 75.1592 114.229 75.1592 108.454C75.1592 102.679 67.3605 98.0171 57.7406 98.0171Z" fill="#FFE375"/>
    <path d="M57.7407 100.092C65.8393 100.092 72.4383 103.877 72.8882 108.668C72.8882 108.497 72.931 108.326 72.931 108.133C72.931 103.107 66.1179 99.0437 57.7407 99.0437C49.3635 99.0437 42.5503 103.107 42.5503 108.133C42.5503 108.304 42.5717 108.475 42.5931 108.668C43.0431 103.899 49.642 100.092 57.7407 100.092Z" fill="#FF9D27"/>
    <path opacity="0.5" d="M57.7408 117.244C65.8395 117.244 72.4384 113.459 72.8883 108.668C72.4384 103.899 65.8395 100.092 57.7408 100.092C49.6421 100.092 43.0432 103.877 42.5933 108.668C43.0432 113.437 49.6421 117.244 57.7408 117.244Z" fill="#FF9D27"/>
    <path d="M67.5105 113.608C66.9963 112.988 66.3964 112.432 65.7751 111.897C66.375 110.978 66.5464 109.865 66.0751 108.689C65.2823 106.615 62.7327 106.422 60.8473 106.615C59.9475 106.7 59.0905 106.935 58.2549 107.192C56.4552 106.187 54.6984 104.925 52.8344 104.005C54.077 103.471 55.5554 103.449 56.5623 103.407C56.8409 103.407 56.9051 103 56.6266 102.915C55.1697 102.466 53.22 102.594 51.656 103.449C50.8633 103.129 50.0491 102.893 49.1921 102.786C49.0636 102.786 49.0421 102.957 49.1278 103C49.6849 103.321 50.2634 103.663 50.8204 103.984C49.3207 105.246 48.6565 107.235 50.9061 108.775C53.0486 110.25 55.6625 109.267 57.8264 108.582C58.0192 108.518 58.2121 108.454 58.4049 108.39C60.2474 109.438 61.9614 110.785 63.7397 112.004C62.8827 112.624 61.6401 113.052 60.6759 113.223C59.219 113.48 57.9978 113.48 56.5409 113.138C56.2624 113.074 56.0267 113.416 56.2624 113.63C57.8907 115.212 61.8972 114.785 64.3182 113.223C64.5325 113.074 64.7253 112.924 64.9181 112.774C65.6466 113.223 66.375 113.651 67.1463 113.993C67.4248 114.122 67.6819 113.801 67.4891 113.565L67.5105 113.608ZM52.8129 108.219C50.7347 107.855 50.2634 106.166 51.5703 104.84C51.656 104.754 51.7631 104.69 51.8488 104.604C53.5628 105.609 55.2554 106.615 56.9908 107.598C56.7123 107.684 56.4552 107.791 56.1767 107.876C55.8125 108.026 53.4771 108.347 52.8129 108.24V108.219ZM61.3187 107.812C62.8185 107.748 65.7965 107.898 64.6396 110.978C63.1184 109.865 61.4687 108.903 59.8189 108.026C60.3117 107.919 60.8045 107.834 61.2973 107.812H61.3187Z" fill="#FF9D27"/>
    <path d="M81.2651 106.764V121.265C81.9936 121.222 82.7006 121.158 83.4076 121.051V106.764H81.2651Z" fill="#FFB83B"/>
    <path d="M78.3301 106.764V121.286C78.7372 121.286 79.1657 121.329 79.5727 121.329C79.7656 121.329 79.9798 121.329 80.1726 121.329V106.786H78.3301V106.764Z" fill="#FFB83B"/>
    <path d="M62.1541 106.764V110.892C62.1541 112.282 62.6254 113.608 63.4396 114.827V106.764H62.1541Z" fill="#FFB83B"/>
    <path d="M84.479 106.764V120.901C85.2075 120.773 85.9145 120.623 86.6215 120.431V106.764H84.479Z" fill="#FFB83B"/>
    <path d="M87.7141 106.764V120.11C88.2497 119.939 88.7854 119.746 89.2781 119.554V106.764H87.7141Z" fill="#FFB83B"/>
    <path d="M67.189 106.764V118.228C67.6817 118.527 68.2174 118.805 68.753 119.062V106.764H67.189Z" fill="#FFB83B"/>
    <path d="M75.3948 106.764V121.008C75.9947 121.094 76.616 121.158 77.2373 121.222V106.764H75.3948Z" fill="#FFB83B"/>
    <path d="M69.8672 106.764V119.554C70.3814 119.768 70.8956 119.939 71.4312 120.11V106.764H69.8672Z" fill="#FFB83B"/>
    <path d="M72.5237 106.764V120.431C73.1022 120.58 73.6806 120.73 74.302 120.837V106.764H72.5237Z" fill="#FFB83B"/>
    <path d="M64.5322 106.764V116.132C65.0036 116.602 65.5178 117.073 66.0963 117.501V106.764H64.5322Z" fill="#FFB83B"/>
    <path d="M96.9913 106.764H95.7058V114.827C96.5414 113.608 96.9913 112.282 96.9913 110.892V106.764Z" fill="#FFB83B"/>
    <path d="M93.0276 106.764V117.501C93.6061 117.073 94.1203 116.624 94.5916 116.132V106.764H93.0276Z" fill="#FFB83B"/>
    <path d="M90.3708 106.764V119.062C90.9279 118.805 91.4421 118.527 91.9349 118.228V106.764H90.3708Z" fill="#FFB83B"/>
    <path d="M63.4395 106.764V114.827C63.7608 115.276 64.1251 115.726 64.5321 116.153V106.786H63.4395V106.764Z" fill="#FF9D27"/>
    <path d="M66.0962 106.764V117.501C66.439 117.757 66.8032 117.993 67.1889 118.228V106.764H66.0962Z" fill="#FF9D27"/>
    <path d="M68.7744 106.764V119.062C69.1386 119.233 69.4814 119.404 69.8671 119.554V106.764H68.7744Z" fill="#FF9D27"/>
    <path d="M71.4312 106.764V120.11C71.7954 120.217 72.1596 120.324 72.5238 120.431V106.764H71.4312Z" fill="#FF9D27"/>
    <path d="M74.302 106.764V120.837C74.6662 120.901 75.0305 120.965 75.3947 121.008V106.764H74.302Z" fill="#FF9D27"/>
    <path d="M77.2373 106.764V121.222C77.6015 121.243 77.9658 121.265 78.33 121.286V106.764H77.2373Z" fill="#FF9D27"/>
    <path d="M80.1726 106.764V121.308C80.5368 121.308 80.9011 121.308 81.2653 121.265V106.764H80.1726Z" fill="#FF9D27"/>
    <path d="M83.3862 106.764V121.051C83.7505 121.008 84.1147 120.944 84.4789 120.88V106.743H83.3862V106.764Z" fill="#FF9D27"/>
    <path d="M94.613 106.764V116.132C95.0201 115.704 95.3843 115.276 95.7057 114.806V106.743H94.613V106.764Z" fill="#FF9D27"/>
    <path d="M91.9348 106.764V118.228C92.3205 117.993 92.6847 117.757 93.0275 117.501V106.764H91.9348Z" fill="#FF9D27"/>
    <path d="M89.2781 106.764V119.554C89.6637 119.404 90.0065 119.233 90.3708 119.062V106.764H89.2781Z" fill="#FF9D27"/>
    <path d="M86.6216 106.764V120.431C86.9858 120.324 87.35 120.238 87.7143 120.11V106.764H86.6216Z" fill="#FF9D27"/>
    <path d="M79.5726 96.3275C69.9528 96.3275 62.1541 100.99 62.1541 106.764C62.1541 112.539 69.9528 117.201 79.5726 117.201C89.1925 117.201 96.9912 112.539 96.9912 106.764C96.9912 100.99 89.1925 96.3275 79.5726 96.3275Z" fill="#FFE375"/>
    <path d="M79.5727 98.4021C87.6714 98.4021 94.2703 102.188 94.7202 106.978C94.7202 106.807 94.7631 106.636 94.7631 106.444C94.7631 101.418 87.9499 97.3541 79.5727 97.3541C71.1955 97.3541 64.3823 101.418 64.3823 106.444C64.3823 106.615 64.4038 106.786 64.4252 106.978C64.8751 102.209 71.474 98.4021 79.5727 98.4021Z" fill="#FF9D27"/>
    <path opacity="0.5" d="M79.5728 115.555C87.6715 115.555 94.2704 111.769 94.7203 106.978C94.2704 102.209 87.6715 98.4021 79.5728 98.4021C71.4741 98.4021 64.8752 102.188 64.4253 106.978C64.8752 111.748 71.4741 115.555 79.5728 115.555Z" fill="#FF9D27"/>
    <path d="M89.3426 111.919C88.8284 111.298 88.2285 110.742 87.6071 110.208C88.207 109.288 88.3784 108.176 87.9071 107C87.1144 104.925 84.5648 104.733 82.6794 104.925C81.7795 105.011 80.9225 105.246 80.0869 105.503C78.2872 104.497 76.5304 103.235 74.6664 102.316C75.9091 101.781 77.3874 101.76 78.3944 101.717C78.6729 101.717 78.7372 101.311 78.4586 101.225C77.0017 100.776 75.0521 100.904 73.488 101.76C72.6953 101.439 71.8811 101.204 71.0241 101.097C70.8956 101.097 70.8742 101.268 70.9599 101.311C71.5169 101.631 72.0954 101.974 72.6524 102.294C71.1527 103.556 70.4885 105.545 72.7381 107.085C74.8807 108.561 77.4945 107.577 79.6584 106.893C79.8513 106.829 80.0441 106.764 80.2369 106.7C82.0795 107.748 83.7935 109.096 85.5718 110.315C84.7148 110.935 83.4721 111.363 82.508 111.534C81.0511 111.79 79.8298 111.79 78.3729 111.448C78.0944 111.384 77.8587 111.726 78.0944 111.94C79.7227 113.523 83.7292 113.095 86.1502 111.534C86.3645 111.384 86.5573 111.256 86.7501 111.085C87.4786 111.534 88.207 111.961 88.9783 112.304C89.2569 112.432 89.514 112.111 89.3211 111.876L89.3426 111.919ZM74.645 106.529C72.5667 106.166 72.0954 104.476 73.4023 103.15C73.488 103.064 73.5951 103 73.6808 102.915C75.3949 103.92 77.0874 104.925 78.8229 105.909C78.5443 105.994 78.2872 106.101 78.0087 106.187C77.6445 106.337 75.3092 106.657 74.645 106.55V106.529ZM83.1507 106.123C84.6505 106.059 87.6286 106.208 86.4716 109.288C84.9504 108.176 83.3007 107.213 81.651 106.337C82.1438 106.23 82.6365 106.144 83.1293 106.123H83.1507Z" fill="#FF9D27"/>
    <path d="M19.1111 153.174V167.675C19.8395 167.632 20.5466 167.568 21.2536 167.461V153.174H19.1111Z" fill="#FFB83B"/>
    <path d="M16.176 153.174V167.696C16.5831 167.696 17.0116 167.739 17.4187 167.739C17.6115 167.739 17.8258 167.739 18.0186 167.739V153.196H16.176V153.174Z" fill="#FFB83B"/>
    <path d="M0 153.174V157.302C0 158.692 0.471351 160.018 1.2855 161.237V153.174H0Z" fill="#FFB83B"/>
    <path d="M22.3464 153.174V167.311C23.0749 167.183 23.7819 167.033 24.4889 166.841V153.174H22.3464Z" fill="#FFB83B"/>
    <path d="M25.5601 153.174V166.52C26.0957 166.349 26.6313 166.156 27.1241 165.964V153.174H25.5601Z" fill="#FFB83B"/>
    <path d="M5.0564 153.174V164.638C5.54917 164.937 6.0848 165.215 6.62043 165.472V153.174H5.0564Z" fill="#FFB83B"/>
    <path d="M13.2407 153.174V167.418C13.8406 167.504 14.462 167.568 15.0833 167.632V153.174H13.2407Z" fill="#FFB83B"/>
    <path d="M7.71313 153.174V165.964C8.22734 166.156 8.74154 166.349 9.27716 166.52V153.174H7.71313Z" fill="#FFB83B"/>
    <path d="M10.3696 153.174V166.841C10.9481 166.991 11.5266 167.14 12.1479 167.247V153.174H10.3696Z" fill="#FFB83B"/>
    <path d="M2.37817 153.174V162.542C2.84953 163.013 3.36373 163.483 3.9422 163.911V153.174H2.37817Z" fill="#FFB83B"/>
    <path d="M34.8373 153.174H33.5518V161.237C34.3873 160.018 34.8373 158.692 34.8373 157.302V153.174Z" fill="#FFB83B"/>
    <path d="M30.895 153.174V163.911C31.4735 163.483 31.9877 163.034 32.459 162.542V153.174H30.895Z" fill="#FFB83B"/>
    <path d="M28.2168 153.174V165.472C28.7738 165.215 29.288 164.937 29.7808 164.638V153.174H28.2168Z" fill="#FFB83B"/>
    <path d="M1.2854 153.174V161.237C1.60678 161.686 1.971 162.136 2.37808 162.563V153.196H1.2854V153.174Z" fill="#FF9D27"/>
    <path d="M3.96362 153.174V163.911C4.30642 164.167 4.67065 164.403 5.0563 164.638V153.174H3.96362Z" fill="#FF9D27"/>
    <path d="M6.62036 153.174V165.472C6.98459 165.643 7.32739 165.814 7.71304 165.964V153.174H6.62036Z" fill="#FF9D27"/>
    <path d="M9.2771 153.174V166.52C9.64133 166.627 10.0056 166.734 10.3698 166.841V153.174H9.2771Z" fill="#FF9D27"/>
    <path d="M12.1479 153.174V167.247C12.5122 167.311 12.8764 167.375 13.2406 167.418V153.174H12.1479Z" fill="#FF9D27"/>
    <path d="M15.0833 153.174V167.632C15.4475 167.653 15.8117 167.675 16.1759 167.696V153.174H15.0833Z" fill="#FF9D27"/>
    <path d="M18.0186 153.174V167.718C18.3828 167.718 18.747 167.718 19.1112 167.675V153.174H18.0186Z" fill="#FF9D27"/>
    <path d="M21.2537 153.174V167.461C21.6179 167.418 21.9821 167.354 22.3463 167.29V153.153H21.2537V153.174Z" fill="#FF9D27"/>
    <path d="M32.459 153.174V162.542C32.8661 162.114 33.2303 161.687 33.5517 161.216V153.153H32.459V153.174Z" fill="#FF9D27"/>
    <path d="M29.8022 153.174V164.638C30.1879 164.403 30.5521 164.167 30.8949 163.911V153.174H29.8022Z" fill="#FF9D27"/>
    <path d="M27.124 153.174V165.964C27.5097 165.814 27.8525 165.643 28.2167 165.472V153.174H27.124Z" fill="#FF9D27"/>
    <path d="M24.4675 153.174V166.841C24.8318 166.734 25.196 166.648 25.5602 166.52V153.174H24.4675Z" fill="#FF9D27"/>
    <path d="M17.4186 142.738C7.79872 142.738 0 147.421 0 153.174C0 158.928 7.79872 163.611 17.4186 163.611C27.0384 163.611 34.8372 158.949 34.8372 153.174C34.8372 147.4 27.0384 142.738 17.4186 142.738Z" fill="#FFE375"/>
    <path d="M17.4186 144.833C25.5173 144.833 32.1162 148.619 32.5662 153.41C32.5662 153.239 32.609 153.068 32.609 152.875C32.609 147.849 25.7958 143.786 17.4186 143.786C9.04144 143.786 2.22827 147.849 2.22827 152.875C2.22827 153.046 2.2497 153.217 2.27112 153.41C2.72105 148.64 9.31997 144.833 17.4186 144.833Z" fill="#FF9D27"/>
    <path opacity="0.5" d="M17.4188 161.965C25.5174 161.965 32.1164 158.179 32.5663 153.388C32.1164 148.619 25.5174 144.812 17.4188 144.812C9.32009 144.812 2.72117 148.598 2.27124 153.388C2.72117 158.158 9.32009 161.965 17.4188 161.965Z" fill="#FF9D27"/>
    <path d="M27.1885 158.329C26.6743 157.708 26.0744 157.152 25.4531 156.618C26.053 155.698 26.2244 154.586 25.753 153.41C24.9603 151.335 22.4107 151.143 20.5253 151.335C19.6255 151.421 18.7685 151.656 17.9329 151.913C16.1332 150.907 14.3763 149.646 12.5124 148.726C13.755 148.191 15.2333 148.17 16.2403 148.127C16.5188 148.127 16.5831 147.721 16.3046 147.635C14.8477 147.186 12.898 147.314 11.334 148.17C10.5412 147.849 9.72709 147.614 8.87009 147.507C8.74154 147.507 8.72011 147.678 8.80581 147.721C9.36287 148.041 9.94134 148.384 10.4984 148.704C8.99864 149.966 8.33446 151.955 10.5841 153.495C12.7266 154.971 15.3405 153.987 17.5044 153.303C17.6972 153.239 17.89 153.174 18.0829 153.11C19.9254 154.158 21.6394 155.506 23.4177 156.725C22.5607 157.345 21.3181 157.773 20.3539 157.944C18.897 158.2 17.6758 158.2 16.2189 157.858C15.9404 157.794 15.7047 158.136 15.9404 158.35C17.5687 159.933 21.5752 159.505 23.9962 157.944C24.2104 157.794 24.4033 157.666 24.5961 157.495C25.3245 157.944 26.053 158.371 26.8243 158.714C27.1028 158.842 27.3599 158.521 27.1671 158.286L27.1885 158.329ZM12.4909 152.939C10.4127 152.576 9.94134 150.886 11.2483 149.56C11.334 149.474 11.4411 149.41 11.5268 149.325C13.2408 150.33 14.9334 151.335 16.6688 152.319C16.3903 152.404 16.1332 152.511 15.8547 152.597C15.4904 152.747 13.1551 153.067 12.4909 152.961V152.939ZM20.9967 152.533C22.4964 152.469 25.4745 152.618 24.3176 155.698C22.7964 154.586 21.1467 153.624 19.4969 152.747C19.9897 152.64 20.4825 152.554 20.9752 152.533H20.9967Z" fill="#FF9D27"/>
    <path d="M22.9463 145.753V160.254C23.6747 160.211 24.3818 160.147 25.0888 160.04V145.753H22.9463Z" fill="#FFB83B"/>
    <path d="M20.0112 145.753V160.275C20.4183 160.275 20.8468 160.318 21.2539 160.318C21.4467 160.318 21.661 160.318 21.8538 160.318V145.774H20.0112V145.753Z" fill="#FFB83B"/>
    <path d="M3.83521 145.753V149.881C3.83521 151.271 4.30656 152.597 5.12071 153.816V145.753H3.83521Z" fill="#FFB83B"/>
    <path d="M26.1602 145.753V159.89C26.8886 159.762 27.5956 159.612 28.3027 159.419V145.753H26.1602Z" fill="#FFB83B"/>
    <path d="M29.3953 145.753V159.099C29.9309 158.928 30.4665 158.735 30.9593 158.543V145.753H29.3953Z" fill="#FFB83B"/>
    <path d="M8.87012 145.753V157.217C9.36289 157.516 9.89852 157.794 10.4341 158.051V145.753H8.87012Z" fill="#FFB83B"/>
    <path d="M17.0544 145.753V159.997C17.6543 160.082 18.2757 160.147 18.897 160.211V145.753H17.0544Z" fill="#FFB83B"/>
    <path d="M11.5269 145.753V158.543C12.0411 158.735 12.5553 158.928 13.0909 159.099V145.753H11.5269Z" fill="#FFB83B"/>
    <path d="M14.2048 145.753V159.419C14.7833 159.569 15.3618 159.719 15.9831 159.826V145.753H14.2048Z" fill="#FFB83B"/>
    <path d="M6.21338 145.753V155.121C6.68473 155.591 7.19893 156.062 7.77741 156.489V145.753H6.21338Z" fill="#FFB83B"/>
    <path d="M38.6725 145.753H37.387V153.816C38.2225 152.597 38.6725 151.271 38.6725 149.881V145.753Z" fill="#FFB83B"/>
    <path d="M34.7087 145.753V156.489C35.2872 156.062 35.8014 155.613 36.2728 155.121V145.753H34.7087Z" fill="#FFB83B"/>
    <path d="M32.052 145.753V158.051C32.6091 157.794 33.1233 157.516 33.616 157.217V145.753H32.052Z" fill="#FFB83B"/>
    <path d="M5.12061 145.753V153.816C5.44198 154.265 5.80621 154.714 6.21328 155.142V145.774H5.12061V145.753Z" fill="#FF9D27"/>
    <path d="M7.77734 145.753V156.489C8.12014 156.746 8.48437 156.981 8.87002 157.217V145.753H7.77734Z" fill="#FF9D27"/>
    <path d="M10.4341 145.753V158.051C10.7983 158.222 11.1411 158.393 11.5268 158.543V145.753H10.4341Z" fill="#FF9D27"/>
    <path d="M13.1123 145.753V159.099C13.4765 159.206 13.8408 159.312 14.205 159.419V145.753H13.1123Z" fill="#FF9D27"/>
    <path d="M15.9617 145.753V159.826C16.3259 159.89 16.6901 159.954 17.0543 159.997V145.753H15.9617Z" fill="#FF9D27"/>
    <path d="M18.9185 145.753V160.211C19.2827 160.232 19.6469 160.254 20.0111 160.275V145.753H18.9185Z" fill="#FF9D27"/>
    <path d="M21.8538 145.753V160.296C22.218 160.296 22.5822 160.296 22.9464 160.254V145.753H21.8538Z" fill="#FF9D27"/>
    <path d="M25.0674 145.753V160.04C25.4316 159.997 25.7958 159.933 26.1601 159.869V145.732H25.0674V145.753Z" fill="#FF9D27"/>
    <path d="M36.2942 145.753V155.121C36.7013 154.693 37.0655 154.265 37.3869 153.795V145.732H36.2942V145.753Z" fill="#FF9D27"/>
    <path d="M33.616 145.753V157.217C34.0016 156.981 34.3658 156.746 34.7086 156.489V145.753H33.616Z" fill="#FF9D27"/>
    <path d="M30.9592 145.753V158.543C31.3449 158.393 31.6877 158.222 32.0519 158.051V145.753H30.9592Z" fill="#FF9D27"/>
    <path d="M28.3027 145.753V159.419C28.667 159.312 29.0312 159.227 29.3954 159.099V145.753H28.3027Z" fill="#FF9D27"/>
    <path d="M21.2538 135.316C11.6339 135.316 3.83521 139.979 3.83521 145.753C3.83521 151.528 11.6339 156.19 21.2538 156.19C30.8736 156.19 38.6724 151.528 38.6724 145.753C38.6724 139.979 30.8736 135.316 21.2538 135.316Z" fill="#FFE375"/>
    <path d="M21.2538 137.412C29.3525 137.412 35.9514 141.198 36.4014 145.988C36.4014 145.817 36.4442 145.646 36.4442 145.454C36.4442 140.428 29.6525 136.364 21.2538 136.364C12.8552 136.364 6.06348 140.428 6.06348 145.454C6.06348 145.625 6.0849 145.796 6.10633 145.988C6.55625 141.219 13.1552 137.412 21.2538 137.412Z" fill="#FF9D27"/>
    <path opacity="0.5" d="M21.254 154.543C29.3526 154.543 35.9516 150.758 36.4015 145.967C35.9516 141.198 29.3526 137.391 21.254 137.391C13.1553 137.391 6.55637 141.176 6.10645 145.967C6.55637 150.736 13.1553 154.543 21.254 154.543Z" fill="#FF9D27"/>
    <path d="M19.8183 141.027C19.5612 140.364 19.3898 139.658 19.0898 138.973C18.8756 138.481 17.74 138.631 17.8686 139.144C17.9971 139.765 18.2757 140.385 18.4685 140.984C18.9184 142.288 19.2826 143.4 19.904 144.705C16.5617 144.448 13.3265 144.213 9.96273 144.063C9.10573 144.021 8.99861 145.026 9.85561 145.111C13.3693 145.454 16.9259 145.625 20.5253 145.967C22.9463 147.443 26.4815 149.261 29.2239 150.736C29.8238 151.057 30.895 150.48 30.2951 150.137C28.6025 149.196 21.5751 145.176 21.5537 145.154C20.9109 143.871 20.311 142.331 19.7968 141.027H19.8183Z" fill="#FF9D27"/>
    <path d="M27.9384 142.481C26.0102 143.614 20.0969 146.822 16.4546 149.175C15.619 149.71 16.626 150.202 17.4402 149.731C20.1826 148.127 25.3889 145.325 28.8597 143.015C29.2668 142.759 28.3884 142.224 27.9599 142.481H27.9384Z" fill="#FF9D27"/>
    <path d="M30.4665 144.17C28.5383 145.304 22.6249 148.512 18.9827 150.865C18.1471 151.399 19.1541 151.891 19.9682 151.421C22.7106 149.817 27.9169 147.015 31.3878 144.705C31.7949 144.448 30.9164 143.914 30.4879 144.17H30.4665Z" fill="#FF9D27"/>
    <path d="M64.1252 193.147V207.647C64.8537 207.605 65.5607 207.54 66.2678 207.434V193.147H64.1252Z" fill="#FFB83B"/>
    <path d="M61.1902 193.147V207.669C61.5973 207.669 62.0258 207.712 62.4328 207.712C62.6257 207.712 62.8399 207.712 63.0327 207.712V193.168H61.1902V193.147Z" fill="#FFB83B"/>
    <path d="M45.0142 193.147V197.275C45.0142 198.665 45.4855 199.991 46.2997 201.21V193.147H45.0142Z" fill="#FFB83B"/>
    <path d="M67.3606 193.147V207.284C68.089 207.156 68.7961 207.006 69.5031 206.813V193.147H67.3606Z" fill="#FFB83B"/>
    <path d="M70.5742 193.147V206.493C71.1098 206.321 71.6455 206.129 72.1382 205.936V193.147H70.5742Z" fill="#FFB83B"/>
    <path d="M50.0491 193.147V204.61C50.5418 204.91 51.0775 205.188 51.6131 205.445V193.147H50.0491Z" fill="#FFB83B"/>
    <path d="M58.2549 193.147V207.391C58.8548 207.476 59.4761 207.54 60.0974 207.605V193.147H58.2549Z" fill="#FFB83B"/>
    <path d="M52.7273 193.147V205.936C53.2415 206.129 53.7557 206.321 54.2913 206.493V193.147H52.7273Z" fill="#FFB83B"/>
    <path d="M55.3838 193.147V206.813C55.9623 206.963 56.5407 207.113 57.1621 207.22V193.147H55.3838Z" fill="#FFB83B"/>
    <path d="M47.3923 193.147V202.515C47.8637 202.985 48.3779 203.456 48.9564 203.883V193.147H47.3923Z" fill="#FFB83B"/>
    <path d="M79.8514 193.147H78.5659V201.21C79.4015 199.991 79.8514 198.665 79.8514 197.275V193.147Z" fill="#FFB83B"/>
    <path d="M75.9092 193.147V203.883C76.4877 203.456 77.0019 203.006 77.4732 202.515V193.147H75.9092Z" fill="#FFB83B"/>
    <path d="M73.231 193.147V205.445C73.788 205.188 74.3022 204.91 74.795 204.61V193.147H73.231Z" fill="#FFB83B"/>
    <path d="M46.2996 193.147V201.21C46.6209 201.659 46.9852 202.108 47.3922 202.536V193.168H46.2996V193.147Z" fill="#FF9D27"/>
    <path d="M48.9778 193.147V203.883C49.3206 204.14 49.6848 204.375 50.0705 204.61V193.147H48.9778Z" fill="#FF9D27"/>
    <path d="M51.6345 193.147V205.445C51.9987 205.616 52.3415 205.787 52.7272 205.936V193.147H51.6345Z" fill="#FF9D27"/>
    <path d="M54.2913 193.147V206.493C54.6555 206.599 55.0197 206.706 55.3839 206.813V193.147H54.2913Z" fill="#FF9D27"/>
    <path d="M57.1621 193.147V207.22C57.5263 207.284 57.8906 207.348 58.2548 207.391V193.147H57.1621Z" fill="#FF9D27"/>
    <path d="M60.0974 193.147V207.605C60.4616 207.626 60.8259 207.647 61.1901 207.669V193.147H60.0974Z" fill="#FF9D27"/>
    <path d="M63.0327 193.147V207.69C63.3969 207.69 63.7612 207.69 64.1254 207.647V193.147H63.0327Z" fill="#FF9D27"/>
    <path d="M66.2678 193.147V207.434C66.632 207.391 66.9963 207.327 67.3605 207.262V193.126H66.2678V193.147Z" fill="#FF9D27"/>
    <path d="M77.4731 193.147V202.515C77.8802 202.087 78.2444 201.659 78.5658 201.189V193.126H77.4731V193.147Z" fill="#FF9D27"/>
    <path d="M74.8164 193.147V204.61C75.2021 204.375 75.5663 204.14 75.9091 203.883V193.147H74.8164Z" fill="#FF9D27"/>
    <path d="M72.1382 193.147V205.936C72.5238 205.787 72.8666 205.616 73.2309 205.445V193.147H72.1382Z" fill="#FF9D27"/>
    <path d="M69.4817 193.147V206.813C69.8459 206.706 70.2101 206.621 70.5744 206.493V193.147H69.4817Z" fill="#FF9D27"/>
    <path d="M62.4327 182.71C52.8129 182.71 45.0142 187.372 45.0142 193.147C45.0142 198.922 52.8129 203.584 62.4327 203.584C72.0526 203.584 79.8513 198.922 79.8513 193.147C79.8513 187.372 72.0526 182.71 62.4327 182.71Z" fill="#FFE375"/>
    <path d="M62.4328 184.806C70.5315 184.806 77.1304 188.592 77.5803 193.382C77.5803 193.211 77.6232 193.04 77.6232 192.848C77.6232 187.822 70.8314 183.758 62.4328 183.758C54.0342 183.758 47.2424 187.822 47.2424 192.848C47.2424 193.019 47.2639 193.19 47.2853 193.382C47.7352 188.613 54.3341 184.806 62.4328 184.806Z" fill="#FF9D27"/>
    <path opacity="0.5" d="M62.4329 201.937C70.5316 201.937 77.1305 198.152 77.5804 193.361C77.1305 188.592 70.5316 184.785 62.4329 184.785C54.3342 184.785 47.7353 188.57 47.2854 193.361C47.7353 198.13 54.3342 201.937 62.4329 201.937Z" fill="#FF9D27"/>
    <path d="M60.9972 188.42C60.7401 187.757 60.5687 187.052 60.2688 186.367C60.0545 185.875 58.919 186.025 59.0475 186.538C59.1761 187.159 59.4546 187.779 59.6474 188.378C60.0974 189.682 60.4616 190.794 61.0829 192.099C57.7406 191.842 54.5054 191.607 51.1417 191.457C50.2847 191.415 50.1776 192.42 51.0346 192.505C54.5483 192.848 58.1048 193.019 61.7042 193.361C64.1253 194.837 67.6604 196.654 70.4028 198.13C71.0027 198.451 72.074 197.874 71.4741 197.531C69.7815 196.59 62.7541 192.57 62.7326 192.548C62.0899 191.265 61.49 189.725 60.9758 188.42H60.9972Z" fill="#FF9D27"/>
    <path d="M69.1389 189.896C67.2106 191.03 61.2973 194.238 57.655 196.59C56.8195 197.125 57.8265 197.617 58.6406 197.146C61.383 195.542 66.5893 192.741 70.0602 190.431C70.4672 190.174 69.5888 189.64 69.1603 189.896H69.1389Z" fill="#FF9D27"/>
    <path d="M71.667 191.564C69.7387 192.698 63.8254 195.906 60.1831 198.258C59.3475 198.793 60.3545 199.285 61.1687 198.815C63.9111 197.21 69.1174 194.409 72.5882 192.099C72.9953 191.842 72.1169 191.308 71.6884 191.564H71.667Z" fill="#FF9D27"/>
  </g>
  <defs>
    <clipPath id="clip0_113_3134">
      <rect width="218" height="210" fill="white"/>
    </clipPath>
  </defs>
</svg>