<svg width="16" height="17" viewBox="0 0 16 17" fill="none" xmlns="http://www.w3.org/2000/svg">
<path fill-rule="evenodd" clip-rule="evenodd" d="M14.6663 3.83337V13.1667C14.6663 14.2713 13.7709 15.1667 12.6663 15.1667H3.33301C2.22844 15.1667 1.33301 14.2713 1.33301 13.1667V3.83337C1.33301 2.7288 2.22844 1.83337 3.33301 1.83337H12.6663C13.7709 1.83337 14.6663 2.7288 14.6663 3.83337ZM6.49967 5.02671C7.05834 4.57024 7.79469 4.39351 8.49967 4.54671L8.50634 4.52671C9.53722 4.74769 10.293 5.63076 10.3522 6.6834C10.4114 7.73604 9.7593 8.69826 8.75967 9.03337C8.50787 9.16265 8.34494 9.41724 8.33301 9.70004V9.83337C8.33301 10.2016 8.03453 10.5 7.66634 10.5C7.29815 10.5 6.99967 10.2016 6.99967 9.83337V9.68004C7.01838 8.83199 7.54389 8.07789 8.33301 7.76671C8.76736 7.62842 9.05323 7.21389 9.02811 6.75875C9.003 6.3036 8.67327 5.92304 8.22634 5.83337C7.90951 5.76566 7.57922 5.84946 7.33301 6.06004C7.1028 6.25055 6.97058 6.53457 6.97301 6.83337C6.97301 7.20156 6.67453 7.50004 6.30634 7.50004C5.93815 7.50004 5.63967 7.20156 5.63967 6.83337C5.6376 6.13191 5.95392 5.46739 6.49967 5.02671ZM8.35967 11.8867C8.35801 11.7975 8.33993 11.7094 8.30634 11.6267C8.27596 11.5407 8.22571 11.463 8.15967 11.4C7.89965 11.1416 7.4797 11.1416 7.21967 11.4C7.15732 11.4609 7.10749 11.5334 7.07301 11.6134C7.0414 11.6964 7.02557 11.7846 7.02634 11.8734C7.0288 12.0499 7.09785 12.219 7.21967 12.3467C7.34549 12.4715 7.51581 12.5411 7.69301 12.54H7.81967L7.94634 12.5C7.98613 12.4841 8.02412 12.464 8.05967 12.44L8.15967 12.36C8.28691 12.2353 8.35893 12.0649 8.35967 11.8867ZM12.6663 3.16671C13.0345 3.16671 13.333 3.46518 13.333 3.83337V13.1667C13.333 13.5349 13.0345 13.8334 12.6663 13.8334H3.33301C2.96482 13.8334 2.66634 13.5349 2.66634 13.1667V3.83337C2.66634 3.46518 2.96482 3.16671 3.33301 3.16671H12.6663Z" fill="#B4B4B4"/>
</svg>
