<svg width="12" height="12" viewBox="0 0 12 12" fill="none" xmlns="http://www.w3.org/2000/svg">
<path d="M10.855 10.1451C10.9496 10.239 11.0029 10.3668 11.0029 10.5001C11.0029 10.6334 10.9496 10.7612 10.855 10.8551C10.7611 10.9498 10.6333 11.003 10.5 11.003C10.3667 11.003 10.2389 10.9498 10.145 10.8551L5.99997 6.7051L1.85497 10.8551C1.76109 10.9498 1.63329 11.003 1.49997 11.003C1.36665 11.003 1.23885 10.9498 1.14497 10.8551C1.05031 10.7612 0.99707 10.6334 0.99707 10.5001C0.99707 10.3668 1.05031 10.239 1.14497 10.1451L5.29497 6.0001L1.14497 1.8551C1.01814 1.72827 0.968608 1.54342 1.01503 1.37017C1.06145 1.19691 1.19678 1.06159 1.37003 1.01517C1.54328 0.968742 1.72814 1.01827 1.85497 1.1451L5.99997 5.2951L10.145 1.1451C10.341 0.949043 10.6589 0.949043 10.855 1.1451C11.051 1.34117 11.051 1.65904 10.855 1.8551L6.70497 6.0001L10.855 10.1451Z" fill="#FF7375"/>
</svg>
