<svg width="24" height="24" viewBox="0 0 24 24" fill="none" xmlns="http://www.w3.org/2000/svg">
<path fill-rule="evenodd" clip-rule="evenodd" d="M3.1499 11.57C3.1499 12.1223 3.59762 12.57 4.1499 12.57C4.68658 12.5539 5.11477 12.1169 5.1199 11.58C5.1608 9.26198 6.53349 7.17494 8.64574 6.2193C10.758 5.26365 13.2318 5.61042 14.9999 7.11H14.6799C14.1276 7.11 13.6799 7.55771 13.6799 8.11C13.6799 8.66228 14.1276 9.11 14.6799 9.11H17.5099C18.0622 9.11 18.5099 8.66228 18.5099 8.11V5.28C18.5099 4.72772 18.0622 4.28 17.5099 4.28C16.9576 4.28 16.5099 4.72772 16.5099 5.28V5.72C14.1751 3.61239 10.8218 3.06856 7.94056 4.3302C5.05928 5.59184 3.18468 8.42479 3.1499 11.57ZM17.8399 12.28C17.8399 11.7277 18.2876 11.28 18.8399 11.28C19.3844 11.2854 19.8245 11.7255 19.8299 12.27C19.8633 14.422 19.0183 16.4947 17.4899 18.01C14.4771 21.0076 9.64618 21.1262 6.4899 18.28V18.72C6.4899 19.2723 6.04219 19.72 5.4899 19.72C4.93762 19.72 4.4899 19.2723 4.4899 18.72V15.89C4.4899 15.3377 4.93762 14.89 5.4899 14.89H8.3499C8.90219 14.89 9.3499 15.3377 9.3499 15.89C9.3499 16.4423 8.90219 16.89 8.3499 16.89H7.9999C9.78853 18.3798 12.2774 18.7006 14.3854 17.713C16.4933 16.7255 17.8398 14.6078 17.8399 12.28Z" fill="#F1D4DB"/>
</svg>
