<svg width="16" height="20" viewBox="0 0 16 20" fill="none" xmlns="http://www.w3.org/2000/svg">
<path d="M15.6501 13.76L8.65007 19.76C8.59894 19.7938 8.54547 19.8238 8.49007 19.85L8.37007 19.93C8.13248 20.0246 7.86766 20.0246 7.63007 19.93L7.51007 19.85C7.45467 19.8238 7.4012 19.7938 7.35007 19.76L0.350069 13.76C-0.0696678 13.401 -0.118916 12.7697 0.240069 12.35C0.599054 11.9303 1.23033 11.881 1.65007 12.24L7.00007 16.83V1C7.00007 0.447715 7.44778 0 8.00007 0C8.55235 0 9.00007 0.447715 9.00007 1V16.83L14.3501 12.24C14.7698 11.881 15.4011 11.9303 15.7601 12.35C16.1191 12.7697 16.0698 13.401 15.6501 13.76V13.76Z" fill="#BF697E"/>
</svg>
