<svg width="32" height="33" viewBox="0 0 32 33" fill="none" xmlns="http://www.w3.org/2000/svg">
<path fill-rule="evenodd" clip-rule="evenodd" d="M4.00008 8.5C3.2637 8.5 2.66675 9.09695 2.66675 9.83333C2.66675 10.5697 3.2637 11.1667 4.00008 11.1667H24.7867L21.6401 14.0867C21.3877 14.337 21.2457 14.6778 21.2457 15.0333C21.2457 15.3888 21.3877 15.7296 21.6401 15.98C21.8904 16.2324 22.2312 16.3744 22.5867 16.3744C22.9423 16.3744 23.2831 16.2324 23.5334 15.98L28.8667 10.6467C28.9784 10.5327 29.0647 10.3963 29.1201 10.2467C29.1723 10.1151 29.1995 9.9749 29.2001 9.83333V9.75333C29.214 9.64266 29.214 9.53067 29.2001 9.42C29.2075 9.37587 29.2075 9.3308 29.2001 9.28666C29.1402 9.13929 29.0544 9.00382 28.9467 8.88666L23.6134 3.55333C23.0906 3.0305 22.2429 3.0305 21.7201 3.55333C21.1973 4.07616 21.1973 4.92384 21.7201 5.44666L24.7867 8.5H4.00008ZM7.21341 21.8333H28.0001C28.7365 21.8333 29.3334 22.4303 29.3334 23.1667C29.3334 23.903 28.7365 24.5 28.0001 24.5H7.21341L10.2934 27.42C10.5458 27.6704 10.6878 28.0111 10.6878 28.3667C10.6878 28.7222 10.5458 29.063 10.2934 29.3133C10.0431 29.5657 9.70226 29.7077 9.34675 29.7077C8.99123 29.7077 8.65044 29.5657 8.40008 29.3133L3.06675 23.98C2.95508 23.866 2.86876 23.7297 2.81341 23.58C2.76117 23.4484 2.73403 23.3082 2.73341 23.1667V23.0867C2.74132 22.9732 2.76373 22.8611 2.80008 22.7533C2.79262 22.7092 2.79262 22.6641 2.80008 22.62C2.85999 22.4726 2.94578 22.3372 3.05341 22.22L8.38675 16.8867C8.90958 16.3638 9.75725 16.3638 10.2801 16.8867C10.8029 17.4095 10.8029 18.2572 10.2801 18.78L7.21341 21.8333Z" fill="#BF697E"/>
</svg>