<svg width="25" height="24" viewBox="0 0 25 24" fill="none" xmlns="http://www.w3.org/2000/svg">
<path fill-rule="evenodd" clip-rule="evenodd" d="M19.5 22C21.1569 22 22.5 20.6569 22.5 19V5C22.5 3.34315 21.1569 2 19.5 2H5.5C3.84315 2 2.5 3.34315 2.5 5V19C2.5 20.6569 3.84315 22 5.5 22H19.5ZM16.5 10C15.3954 10 14.5 10.8954 14.5 12C14.5 13.1046 15.3954 14 16.5 14C17.6046 14 18.5 13.1046 18.5 12C18.5 10.8954 17.6046 10 16.5 10ZM20.5 9H13.5C12.9477 9 12.5 9.44772 12.5 10V14C12.5 14.5523 12.9477 15 13.5 15H20.5V9ZM19.5 4C20.0523 4 20.5 4.44772 20.5 5V7H13.5C11.8431 7 10.5 8.34315 10.5 10V14C10.5 15.6569 11.8431 17 13.5 17H20.5V19C20.5 19.5523 20.0523 20 19.5 20H5.5C4.94772 20 4.5 19.5523 4.5 19V5C4.5 4.44772 4.94772 4 5.5 4H19.5Z" fill="currentColor"/>
</svg>
